<?xml version="1.0" encoding="UTF-8" standalone="no"?>
<!-- Created with Inkscape (http://www.inkscape.org/) -->

<svg
   xmlns:dc="http://purl.org/dc/elements/1.1/"
   xmlns:cc="http://creativecommons.org/ns#"
   xmlns:rdf="http://www.w3.org/1999/02/22-rdf-syntax-ns#"
   xmlns:svg="http://www.w3.org/2000/svg"
   xmlns="http://www.w3.org/2000/svg"
   version="1.1"
   width="100%"
   height="100%"
   viewBox="0 0 250.2 362.1"
   id="Layer_1"
   xml:space="preserve"><metadata
     id="metadata145"><rdf:RDF><cc:Work
         rdf:about=""><dc:format>image/svg+xml</dc:format><dc:type
           rdf:resource="http://purl.org/dc/dcmitype/StillImage" /><dc:title></dc:title></cc:Work></rdf:RDF></metadata><defs
     id="defs143" /><style
     type="text/css"
     id="style3" /><g
     transform="translate(-126.6,-65.3)"
     id="g5"><path
       d="m 256.1,379 c 0,-0.3 0,-0.5 0,-0.8 0,-3.2 -0.3,-5.6 -1,-7.2 -0.7,-1.6 -2.1,-2.4 -4.2,-2.4 -2.2,0 -3.7,1 -4.6,3.1 -0.9,2.1 -1.3,5.4 -1.3,10 0,4.6 0.6,7.9 1.9,9.8 1.3,1.9 3.3,2.9 6,2.9 2.7,0 5.9,-1.2 9.5,-3.7 1,0.6 2,1.6 3,3.1 1,1.5 1.6,2.8 1.9,4.1 -2,2 -4.4,3.6 -7.4,4.8 -3,1.2 -6.1,1.8 -9.2,1.8 -6,0 -10.7,-2 -13.9,-6.1 -3.2,-4.1 -4.9,-9.8 -4.9,-17.1 0,-7.3 1.9,-12.9 5.6,-16.6 3.7,-3.8 8.1,-5.6 13.2,-5.6 5.1,0 9.2,1.3 12.3,4 3.1,2.6 4.7,6 4.7,10.2 0,2.1 -0.6,3.6 -1.7,4.7 -1.1,1.1 -2.7,1.6 -4.7,1.6 -2.1,-0.2 -3.8,-0.3 -5.2,-0.6 z"
       id="path7"
       style="fill:#ffffff" /><path
       d="m 302.1,364 c 4.1,4.1 6.2,10 6.2,17.7 0,7.7 -2.1,13.6 -6.2,17.7 -3.4,3.4 -7.9,5.1 -13.5,5.1 -5.6,0 -10.1,-1.7 -13.5,-5.1 -4.1,-4.1 -6.2,-10 -6.2,-17.7 0,-7.7 2.1,-13.6 6.2,-17.7 3.4,-3.3 7.9,-5 13.5,-5 5.6,0 10.1,1.7 13.5,5 z m -18.7,8 c -0.9,2.3 -1.3,5.5 -1.3,9.7 0,4.2 0.4,7.4 1.3,9.7 0.9,2.3 2.6,3.4 5.2,3.4 2.6,0 4.3,-1.1 5.2,-3.4 0.9,-2.3 1.3,-5.5 1.3,-9.7 0,-4.2 -0.4,-7.4 -1.3,-9.7 -0.9,-2.3 -2.6,-3.4 -5.2,-3.4 -2.6,0 -4.3,1.1 -5.2,3.4 z"
       id="path9"
       style="fill:#ffffff" /><path
       d="m 307.5,366.3 c 0.2,-1.1 0.7,-2.4 1.6,-3.7 0.8,-1.3 1.6,-2.3 2.4,-2.9 5.1,0.5 8.6,3.1 10.5,7.8 2.2,-5.1 5.8,-7.7 10.9,-7.7 1.9,0 3.8,0.2 5.6,0.7 0,1.7 -0.3,3.7 -0.9,6 -0.6,2.3 -1.4,4.3 -2.3,6 -1.2,-0.4 -2.6,-0.7 -4.3,-0.8 -3,0 -5.5,1.6 -7.4,4.7 v 27 c -1.7,0.3 -3.8,0.5 -6.3,0.5 -2.5,0 -4.7,-0.2 -6.6,-0.5 v -28.1 c 0,-4.5 -1.1,-7.4 -3.2,-9 z"
       id="path11"
       style="fill:#ffffff" /><path
       d="m 372.7,385.9 h -22.9 c 0.2,2.8 0.9,4.9 2.1,6.4 1.2,1.5 3.3,2.3 6.4,2.3 3,0 6.7,-0.9 10.9,-2.7 1.8,1.7 3,4.3 3.5,7.7 -4.7,3.3 -10.3,4.9 -16.9,4.9 -3.6,0 -6.6,-0.6 -9.2,-1.9 -2.6,-1.2 -4.6,-2.9 -6,-5.1 -2.5,-4.2 -3.8,-9.6 -3.8,-16.1 0,-6.6 1.6,-11.9 4.7,-16.1 3.2,-4.2 7.7,-6.3 13.7,-6.3 6,0 10.6,1.7 13.8,5.1 3.2,3.4 4.8,7.8 4.8,13.2 0,3 -0.3,5.9 -1.1,8.6 z m -12.2,-15.5 c -1,-1.5 -2.5,-2.2 -4.5,-2.2 -2,0 -3.5,0.7 -4.5,2.2 -0.9,1.4 -1.5,3.7 -1.7,6.7 H 362 v -1 c -0.1,-2.4 -0.6,-4.3 -1.5,-5.7 z"
       id="path13"
       style="fill:#ffffff" /><path
       d="m 153.8,385.9 19.9,-49.4 c -0.5,0 -1,-0.1 -1.4,-0.1 -19.4,0 -25.9,18 -16.3,27.9 l -4.8,5.1 c -14.7,-11.4 -9.3,-40.6 19.4,-40.6 53.2,0 48.4,75.7 9.2,75.7 -8.9,0 -15.5,-3.4 -21.5,-6.6 -3.5,5.6 -8.4,7.9 -14.5,7.9 -8.2,0 -13.1,-4.9 -14,-10.1 -0.9,-5.3 2.6,-10.9 11.9,-10.9 4.1,0 7.8,1.2 11.4,2.9 l 0.7,-1.8 z m -3.2,8.4 c -2.7,-1 -5.5,-1.8 -8.6,-1.8 -2.9,0 -4,1.4 -3.8,2.9 0.3,1.5 2,2.9 5.3,2.9 4.1,0 5.7,-1.4 7.1,-4 z m 32.1,-56.2 -21.5,53.8 c 5.2,2.8 10.6,5.1 17,5.1 24.7,0 32.6,-49.2 4.5,-58.9 z"
       id="path15"
       style="fill:#ffffff" /><g
       id="g17"><path
         d="m 226,394.8 c -2.5,2.4 -4.9,3.9 -6.9,3.9 -2.1,0 -3.5,-1.4 -2,-5.1 L 231,358.5 h -9.4 l -13.1,32.6 c -2.7,6.9 1.2,13.3 8.8,13.3 3.6,0 7.2,-1.9 10.6,-4.7 -0.7,-1.4 -1.4,-3 -1.9,-4.9 z"
         id="path19"
         style="fill:#ffffff" /><path
         d="m 231.4,353.8 c 3.1,0 5.1,-2.3 4.5,-5.4 -0.5,-3.1 -3.4,-5.5 -6.5,-5.5 -3.1,0 -5,2.4 -4.4,5.5 0.6,3 3.3,5.4 6.4,5.4 z"
         id="path21"
         style="fill:#ffffff" /></g><g
       id="g23"><path
         d="m 135.6,416 c 0.4,-0.1 1.1,-0.2 1.7,-0.2 1.1,0 1.9,0.3 2.5,0.8 0.8,0.7 1.2,1.9 1.2,3.6 0,1.8 -0.5,3.1 -1.2,3.7 -0.6,0.6 -1.5,0.9 -2.7,0.9 -0.5,0 -1.1,-0.1 -1.4,-0.1 V 416 z m 1.7,7.3 c 0.1,0 0.2,0 0.3,0 0.8,0 1.6,-0.8 1.6,-3.3 0,-1.8 -0.5,-2.9 -1.5,-2.9 -0.1,0 -0.2,0 -0.3,0 v 6.2 z"
         id="path25"
         style="fill:#ffffff" /><path
         d="m 148.2,420.8 h -2 v 2.4 h 2.3 v 1.5 h -4 v -8.9 h 3.9 v 1.5 h -2.1 v 2 h 2 v 1.5 z"
         id="path27"
         style="fill:#ffffff" /><path
         d="m 156.2,424.6 c -0.3,0.1 -0.7,0.2 -1.3,0.2 -2.3,0 -3.3,-1.9 -3.3,-4.4 0,-3.3 1.9,-4.6 3.6,-4.6 0.6,0 1,0.1 1.2,0.2 l -0.3,1.4 c -0.2,-0.1 -0.4,-0.2 -0.8,-0.2 -1,0 -1.9,0.8 -1.9,3 0,2.1 0.8,2.9 1.9,2.9 0.3,0 0.6,-0.1 0.8,-0.1 l 0.1,1.6 z"
         id="path29"
         style="fill:#ffffff" /><path
         d="m 164.6,420.1 c 0,3.3 -1.2,4.7 -2.9,4.7 -2,0 -2.8,-2.1 -2.8,-4.6 0,-2.4 1,-4.5 2.9,-4.5 2.2,0 2.8,2.4 2.8,4.4 z m -3.9,0.2 c 0,2 0.4,3 1.1,3 0.7,0 1,-1.3 1,-3.1 0,-1.6 -0.2,-3 -1,-3 -0.7,0 -1.1,1.2 -1.1,3.1 z"
         id="path31"
         style="fill:#ffffff" /><path
         d="m 168.1,416 c 0.5,-0.1 1.2,-0.2 1.9,-0.2 0.9,0 1.8,0.1 2.4,0.7 0.5,0.5 0.7,1.1 0.7,1.8 0,0.9 -0.5,1.8 -1.4,2.2 v 0 c 0.6,0.2 0.9,0.8 1.1,1.7 0.2,1 0.4,2.1 0.6,2.4 h -1.8 c -0.1,-0.3 -0.3,-1.1 -0.4,-2.1 -0.2,-1.1 -0.4,-1.4 -1,-1.4 h -0.3 v 3.5 h -1.7 V 416 z m 1.7,3.8 h 0.3 c 0.7,0 1.2,-0.6 1.2,-1.4 0,-0.7 -0.3,-1.3 -1.1,-1.3 -0.1,0 -0.3,0 -0.4,0.1 v 2.6 z"
         id="path33"
         style="fill:#ffffff" /><path
         d="m 178,422.7 -0.4,2 h -1.7 l 1.9,-8.9 h 2.1 l 1.7,8.9 H 180 l -0.4,-2 H 178 z m 1.4,-1.4 -0.3,-1.9 c -0.1,-0.5 -0.2,-1.4 -0.3,-2 h 0 c -0.1,0.6 -0.2,1.5 -0.3,2 l -0.3,1.8 h 1.2 z"
         id="path35"
         style="fill:#ffffff" /><path
         d="m 189,424.6 c -0.3,0.1 -0.7,0.2 -1.2,0.2 l -0.3,0.5 c 0.5,0.1 0.9,0.4 0.9,1 0,0.8 -0.7,1.1 -1.5,1.1 -0.4,0 -0.7,-0.1 -1,-0.2 l 0.3,-0.8 c 0.2,0.1 0.5,0.2 0.7,0.2 0.2,0 0.4,-0.1 0.4,-0.3 0,-0.2 -0.3,-0.4 -0.9,-0.5 l 0.5,-1.1 c -1.8,-0.4 -2.6,-2 -2.6,-4.3 0,-3.3 1.9,-4.6 3.6,-4.6 0.6,0 1,0.1 1.2,0.2 l -0.3,1.4 c -0.2,-0.1 -0.4,-0.2 -0.8,-0.2 -1,0 -1.9,0.8 -1.9,3 0,2.1 0.8,2.9 1.9,2.9 0.3,0 0.6,-0.1 0.8,-0.1 l 0.2,1.6 z"
         id="path37"
         style="fill:#ffffff" /><path
         d="m 194.1,422.7 -0.4,2 H 192 l 1.9,-8.9 h 2.1 l 1.7,8.9 H 196 l -0.4,-2 h -1.5 z m -0.7,-7.4 c 0,-1 0.3,-1.5 0.9,-1.5 0.3,0 0.5,0.1 0.7,0.2 0.2,0.1 0.3,0.2 0.5,0.2 0.2,0 0.3,-0.1 0.3,-0.5 h 0.8 c 0,1.1 -0.3,1.5 -0.9,1.5 -0.3,0 -0.5,-0.1 -0.7,-0.2 -0.2,-0.1 -0.3,-0.2 -0.4,-0.2 -0.1,0 -0.3,0.1 -0.3,0.5 h -0.9 z m 2.1,6 -0.3,-1.9 c -0.1,-0.5 -0.2,-1.4 -0.3,-2 h 0 c -0.1,0.6 -0.2,1.5 -0.3,2 l -0.3,1.8 h 1.2 z"
         id="path39"
         style="fill:#ffffff" /><path
         d="m 206.1,420.1 c 0,3.3 -1.2,4.7 -2.9,4.7 -2,0 -2.8,-2.1 -2.8,-4.6 0,-2.4 1,-4.5 2.9,-4.5 2.2,0 2.8,2.4 2.8,4.4 z m -3.9,0.2 c 0,2 0.4,3 1.1,3 0.7,0 1,-1.3 1,-3.1 0,-1.6 -0.2,-3 -1,-3 -0.7,0 -1.1,1.2 -1.1,3.1 z"
         id="path41"
         style="fill:#ffffff" /><path
         d="m 217.7,420.8 h -2 v 2.4 h 2.3 v 1.5 h -4 v -8.9 h 3.9 v 1.5 h -2.1 v 2 h 2 v 1.5 z"
         id="path43"
         style="fill:#ffffff" /><path
         d="m 226,416 c 0.4,-0.1 1.1,-0.2 1.7,-0.2 1.1,0 1.9,0.3 2.5,0.8 0.8,0.7 1.2,1.9 1.2,3.6 0,1.8 -0.5,3.1 -1.2,3.7 -0.6,0.6 -1.5,0.9 -2.7,0.9 -0.5,0 -1.1,-0.1 -1.4,-0.1 V 416 z m 1.7,7.3 c 0.1,0 0.2,0 0.3,0 0.8,0 1.6,-0.8 1.6,-3.3 0,-1.8 -0.5,-2.9 -1.5,-2.9 -0.1,0 -0.2,0 -0.3,0 v 6.2 z"
         id="path45"
         style="fill:#ffffff" /><path
         d="m 238.6,420.8 h -2 v 2.4 h 2.3 v 1.5 h -4 v -8.9 h 3.9 v 1.5 h -2.1 v 2 h 2 v 1.5 z"
         id="path47"
         style="fill:#ffffff" /><path
         d="m 242.2,422.9 c 0.4,0.2 1,0.3 1.5,0.3 0.8,0 1.2,-0.4 1.2,-1 0,-0.6 -0.4,-1 -1.1,-1.4 -1.2,-0.7 -1.7,-1.7 -1.7,-2.5 0,-1.4 0.9,-2.6 2.8,-2.6 0.6,0 1.1,0.2 1.4,0.3 l -0.3,1.5 c -0.3,-0.2 -0.6,-0.3 -1.1,-0.3 -0.7,0 -1.1,0.4 -1.1,0.9 0,0.5 0.3,0.8 1.2,1.4 1.2,0.7 1.6,1.6 1.6,2.5 0,1.6 -1.2,2.7 -2.9,2.7 -0.7,0 -1.4,-0.2 -1.7,-0.4 l 0.2,-1.4 z"
         id="path49"
         style="fill:#ffffff" /><path
         d="m 251.6,415.8 v 8.9 h -1.7 v -8.9 h 1.7 z"
         id="path51"
         style="fill:#ffffff" /><path
         d="m 260.5,424.5 c -0.4,0.2 -1.2,0.3 -1.8,0.3 -1,0 -1.8,-0.3 -2.4,-0.9 -0.8,-0.7 -1.2,-2.1 -1.1,-3.6 0,-3.2 1.9,-4.6 3.8,-4.6 0.7,0 1.2,0.1 1.4,0.3 l -0.3,1.5 c -0.3,-0.1 -0.6,-0.2 -1,-0.2 -1.2,0 -2.1,0.8 -2.1,3.1 0,2.1 0.8,2.9 1.6,2.9 0.2,0 0.3,0 0.3,0 v -2.1 h -0.8 v -1.4 h 2.4 v 4.7 z"
         id="path53"
         style="fill:#ffffff" /><path
         d="m 264.1,424.7 v -8.9 h 1.6 l 1.4,3.5 c 0.3,0.7 0.7,1.8 0.9,2.6 h 0 c -0.1,-0.9 -0.2,-2.5 -0.2,-4.1 v -2 h 1.5 v 8.9 h -1.6 l -1.4,-3.4 c -0.3,-0.7 -0.7,-1.9 -0.9,-2.7 h 0 c 0,0.9 0.1,2.3 0.1,4 v 2 h -1.4 z"
         id="path55"
         style="fill:#ffffff" /><path
         d="m 277.7,416 c 0.4,-0.1 1.1,-0.2 1.7,-0.2 1.1,0 1.9,0.3 2.5,0.8 0.8,0.7 1.2,1.9 1.2,3.6 0,1.8 -0.5,3.1 -1.2,3.7 -0.6,0.6 -1.5,0.9 -2.7,0.9 -0.5,0 -1.1,-0.1 -1.4,-0.1 V 416 z m 1.7,7.3 c 0.1,0 0.2,0 0.3,0 0.8,0 1.6,-0.8 1.6,-3.3 0,-1.8 -0.5,-2.9 -1.5,-2.9 -0.1,0 -0.2,0 -0.3,0 v 6.2 z"
         id="path57"
         style="fill:#ffffff" /><path
         d="m 290.3,420.8 h -2 v 2.4 h 2.3 v 1.5 h -4 v -8.9 h 3.9 v 1.5 h -2.1 v 2 h 2 v 1.5 z"
         id="path59"
         style="fill:#ffffff" /><path
         d="m 300.3,415.8 v 8.9 h -1.7 v -8.9 h 1.7 z"
         id="path61"
         style="fill:#ffffff" /><path
         d="m 304.2,424.7 v -8.9 h 1.6 l 1.4,3.5 c 0.3,0.7 0.7,1.8 0.9,2.6 h 0 c -0.1,-0.9 -0.2,-2.5 -0.2,-4.1 v -2 h 1.5 v 8.9 h -1.6 l -1.4,-3.4 c -0.3,-0.7 -0.7,-1.9 -0.9,-2.7 h 0 c 0,0.9 0.1,2.3 0.1,4 v 2 h -1.4 z"
         id="path63"
         style="fill:#ffffff" /><path
         d="m 314.3,417.4 h -1.6 v -1.6 h 4.9 v 1.6 H 316 v 7.3 h -1.7 v -7.3 z"
         id="path65"
         style="fill:#ffffff" /><path
         d="m 324.6,420.8 h -2 v 2.4 h 2.3 v 1.5 h -4 v -8.9 h 3.9 v 1.5 h -2.1 v 2 h 2 v 1.5 z"
         id="path67"
         style="fill:#ffffff" /><path
         d="m 328.4,416 c 0.5,-0.1 1.2,-0.2 1.9,-0.2 0.9,0 1.8,0.1 2.4,0.7 0.5,0.5 0.7,1.1 0.7,1.8 0,0.9 -0.5,1.8 -1.4,2.2 v 0 c 0.6,0.2 0.9,0.8 1.1,1.7 0.2,1 0.4,2.1 0.6,2.4 h -1.8 c -0.1,-0.3 -0.3,-1.1 -0.4,-2.1 -0.2,-1.1 -0.4,-1.4 -1,-1.4 h -0.3 v 3.5 h -1.7 V 416 z m 1.8,3.8 h 0.3 c 0.7,0 1.2,-0.6 1.2,-1.4 0,-0.7 -0.3,-1.3 -1.1,-1.3 -0.1,0 -0.3,0 -0.4,0.1 v 2.6 z"
         id="path69"
         style="fill:#ffffff" /><path
         d="m 338.7,415.8 v 8.9 H 337 v -8.9 h 1.7 z"
         id="path71"
         style="fill:#ffffff" /><path
         d="m 347.8,420.1 c 0,3.3 -1.2,4.7 -2.9,4.7 -2,0 -2.8,-2.1 -2.8,-4.6 0,-2.4 1,-4.5 2.9,-4.5 2.2,0 2.8,2.4 2.8,4.4 z m -3.8,0.2 c 0,2 0.4,3 1.1,3 0.7,0 1,-1.3 1,-3.1 0,-1.6 -0.2,-3 -1,-3 -0.8,0 -1.1,1.2 -1.1,3.1 z"
         id="path73"
         style="fill:#ffffff" /><path
         d="m 351.3,416 c 0.5,-0.1 1.2,-0.2 1.9,-0.2 0.9,0 1.8,0.1 2.4,0.7 0.5,0.5 0.7,1.1 0.7,1.8 0,0.9 -0.5,1.8 -1.4,2.2 v 0 c 0.6,0.2 0.9,0.8 1.1,1.7 0.2,1 0.4,2.1 0.6,2.4 h -1.8 c -0.1,-0.3 -0.3,-1.1 -0.4,-2.1 -0.2,-1.1 -0.4,-1.4 -1,-1.4 H 353 v 3.5 h -1.7 V 416 z m 1.7,3.8 h 0.3 c 0.7,0 1.2,-0.6 1.2,-1.4 0,-0.7 -0.3,-1.3 -1.1,-1.3 -0.1,0 -0.3,0 -0.4,0.1 v 2.6 z"
         id="path75"
         style="fill:#ffffff" /><path
         d="m 363.6,420.8 h -2 v 2.4 h 2.3 v 1.5 h -4 v -8.9 h 3.9 v 1.5 h -2.1 v 2 h 2 v 1.5 z"
         id="path77"
         style="fill:#ffffff" /><path
         d="m 367.2,422.9 c 0.4,0.2 1,0.3 1.5,0.3 0.8,0 1.2,-0.4 1.2,-1 0,-0.6 -0.4,-1 -1.1,-1.4 -1.2,-0.7 -1.7,-1.7 -1.7,-2.5 0,-1.4 0.9,-2.6 2.8,-2.6 0.6,0 1.1,0.2 1.4,0.3 l -0.3,1.5 c -0.3,-0.2 -0.6,-0.3 -1.1,-0.3 -0.7,0 -1.1,0.4 -1.1,0.9 0,0.5 0.3,0.8 1.2,1.4 1.2,0.7 1.6,1.6 1.6,2.5 0,1.6 -1.2,2.7 -2.9,2.7 -0.7,0 -1.4,-0.2 -1.7,-0.4 l 0.2,-1.4 z"
         id="path79"
         style="fill:#ffffff" /></g></g><g
     transform="translate(-126.6,-65.3)"
     id="g81"><g
       id="g83"><g
         id="g85"><g
           id="g87"><path
             d="m 286.5,66.9 c -8.4,0 -16.2,3.3 -22.1,9.2 -0.1,0.1 -0.3,0.3 -0.4,0.4 -0.4,0.2 -0.9,0.3 -1.4,0.3 -0.9,0 -1.7,-0.3 -2.3,-1 -0.6,-0.6 -1,-1.5 -1,-2.3 0,-0.2 0,-0.5 0.1,-0.7 l 1.6,-7.4 -5.5,5.4 c -1.5,1.5 -2.3,3.5 -2.3,5.6 0,2.1 0.8,4.1 2.3,5.6 0.4,0.4 0.8,0.7 1.3,1 -2.8,3.9 -2.7,9.4 0.3,14 1.9,2.9 5.1,4.9 8.3,5.3 2.7,0.3 5.1,-0.6 6.9,-2.6 l 2.3,-2.6 -3.3,-1.2 c -0.4,-0.1 -0.8,-0.3 -1.2,-0.4 -2.2,-0.8 -3.1,-1.1 -4.1,-2.3 -2.2,-2.8 -2.1,-6.7 0.3,-9.3 0.5,-0.4 0.9,-0.8 1.4,-1.1 0.2,-0.1 0.3,-0.2 0.5,-0.3 l 6.7,-3.5 -0.1,0 c 2.6,-0.9 5.3,-1.3 8,-1.3 6.7,0 13,2.6 17.7,7.3 4.7,4.7 7.3,11 7.3,17.7 0,2.2 -0.3,4.4 -0.9,6.5 l -0.1,0.3 c -1.6,13.5 -15.6,34 -39.4,57.8 -6,6 -16,15 -16,15 0,0 -10,-9 -16,-15 C 211.6,143.5 197.6,123 196,109.5 l -0.1,-0.3 c -0.6,-2.1 -0.9,-4.3 -0.9,-6.5 0,-6.7 2.6,-13 7.3,-17.7 4.7,-4.7 11,-7.3 17.7,-7.3 2.8,0 5.5,0.4 8,1.3 l -0.1,0 6.7,3.5 c 0.1,0.1 0.3,0.2 0.5,0.3 0.5,0.3 0.9,0.7 1.4,1.1 2.4,2.6 2.6,6.6 0.3,9.3 -0.9,1.1 -1.9,1.5 -4.1,2.3 -0.4,0.1 -0.8,0.3 -1.2,0.4 l -3.3,1.2 2.3,2.6 c 1.8,2 4.3,2.9 6.9,2.6 3.2,-0.3 6.4,-2.4 8.3,-5.3 3,-4.6 3,-10.1 0.3,-14 0.5,-0.3 0.9,-0.6 1.3,-1 1.5,-1.5 2.3,-3.5 2.3,-5.6 0,-2.1 -0.8,-4.1 -2.3,-5.6 l -5.5,-5.4 1.6,7.4 c 0,0.2 0.1,0.4 0.1,0.7 0,0.9 -0.3,1.7 -1,2.3 -0.6,0.6 -1.4,1 -2.3,1 -0.5,0 -0.9,-0.1 -1.4,-0.3 -0.1,-0.1 -0.3,-0.3 -0.4,-0.4 -5.9,-5.9 -13.8,-9.2 -22.1,-9.2 -17.3,0 -31.3,14 -31.3,31.3 0,2.7 0.4,5.4 1,8 2.5,19.6 24.8,45.6 43.1,63.9 9.3,9.3 16.5,15.5 16.6,15.6 l 5.5,4.7 5.5,-4.7 c 0.1,-0.1 7.3,-6.3 16.6,-15.6 18.3,-18.3 40.6,-44.2 43.1,-63.9 0.7,-2.6 1,-5.3 1,-8 0.5,-17.3 -13.6,-31.3 -30.9,-31.3 z"
             id="path89"
             style="fill:#ffffff" /><path
             d="m 274.3,102.4 c -5.4,0 -10.5,2.1 -14.3,5.9 -0.1,0.1 -0.2,0.2 -0.3,0.3 -0.3,0.1 -0.6,0.2 -0.9,0.2 -0.6,0 -1.1,-0.2 -1.5,-0.6 -0.4,-0.4 -0.6,-0.9 -0.6,-1.5 0,-0.2 0,-0.3 0,-0.4 l 1,-4.8 -3.5,3.5 c -1,1 -1.5,2.3 -1.5,3.6 0,1.4 0.5,2.7 1.5,3.6 0.3,0.3 0.5,0.5 0.8,0.7 -1.8,2.5 -1.8,6.1 0.2,9.1 1.2,1.9 3.3,3.2 5.4,3.4 1.7,0.2 3.3,-0.4 4.5,-1.7 l 1.5,-1.7 -2.1,-0.8 c -0.3,-0.1 -0.5,-0.2 -0.8,-0.3 -1.4,-0.5 -2,-0.7 -2.6,-1.5 -1.5,-1.8 -1.4,-4.4 0.2,-6 0.3,-0.3 0.6,-0.5 0.9,-0.7 0.1,-0.1 0.2,-0.1 0.3,-0.2 l 4.4,-2.3 0,0 c 1.7,-0.6 3.4,-0.9 5.2,-0.8 4.3,0 8.4,1.7 11.5,4.8 3.1,3.1 4.8,7.2 4.8,11.5 0,1.4 -0.2,2.9 -0.6,4.2 l 0,0.2 c -1.1,8.7 -10.1,22 -25.5,37.4 -3.9,3.9 -10.4,9.7 -10.4,9.7 0,0 -6.5,-5.8 -10.4,-9.7 C 226.1,152.1 217,138.8 216,130.1 l 0,-0.2 c -0.4,-1.4 -0.6,-2.8 -0.6,-4.2 0,-4.3 1.7,-8.4 4.8,-11.5 3.1,-3.1 7.2,-4.8 11.5,-4.8 1.8,0 3.5,0.3 5.2,0.8 l 0,0 4.4,2.3 c 0.1,0.1 0.2,0.1 0.3,0.2 0.3,0.2 0.6,0.5 0.9,0.7 1.6,1.7 1.7,4.2 0.2,6 -0.6,0.7 -1.2,1 -2.6,1.5 -0.2,0.1 -0.5,0.2 -0.8,0.3 l -2.1,0.8 1.5,1.7 c 1.2,1.3 2.8,1.9 4.5,1.7 2.1,-0.2 4.2,-1.6 5.4,-3.4 1.9,-3 2,-6.5 0.2,-9.1 0.3,-0.2 0.6,-0.4 0.8,-0.7 1,-1 1.5,-2.3 1.5,-3.6 0,-1.4 -0.5,-2.7 -1.5,-3.6 l -3.5,-3.5 1,4.8 c 0,0.1 0,0.3 0,0.4 0,0.6 -0.2,1.1 -0.6,1.5 -0.4,0.4 -0.9,0.6 -1.5,0.6 -0.3,0 -0.6,-0.1 -0.9,-0.2 -0.1,-0.1 -0.2,-0.2 -0.3,-0.3 -3.8,-3.8 -8.9,-5.9 -14.3,-5.9 -11.2,0 -20.3,9.1 -20.3,20.3 0,1.7 0.2,3.5 0.7,5.2 1.6,12.7 16.1,29.5 27.9,41.4 6,6 10.7,10.1 10.7,10.1 l 3.5,3.1 3.5,-3.1 c 0,0 4.7,-4.1 10.7,-10.1 11.9,-11.9 26.3,-28.6 27.9,-41.4 0.4,-1.7 0.7,-3.4 0.7,-5.2 -0.2,-11.2 -9.3,-20.3 -20.5,-20.3 z"
             id="path91"
             style="fill:#ffffff" /></g><g
           id="g93"><path
             d="m 216.8,313.9 c 8.4,0 16.2,-3.3 22.1,-9.2 0.1,-0.1 0.3,-0.3 0.4,-0.4 0.4,-0.2 0.9,-0.3 1.4,-0.3 0.9,0 1.7,0.3 2.3,1 0.6,0.6 1,1.4 1,2.3 0,0.2 0,0.5 -0.1,0.7 l -1.6,7.4 5.5,-5.4 c 1.5,-1.5 2.3,-3.5 2.3,-5.6 0,-2.1 -0.8,-4.1 -2.3,-5.6 -0.4,-0.4 -0.8,-0.7 -1.3,-1.1 2.8,-3.9 2.7,-9.4 -0.3,-14 -1.9,-2.9 -5.1,-4.9 -8.3,-5.3 -2.7,-0.3 -5.1,0.6 -6.9,2.6 l -2.3,2.6 3.3,1.2 c 0.4,0.1 0.8,0.3 1.2,0.4 2.2,0.8 3.1,1.1 4.1,2.3 2.2,2.8 2.1,6.7 -0.3,9.3 -0.5,0.4 -0.9,0.8 -1.4,1.1 -0.2,0.1 -0.3,0.2 -0.5,0.3 l -6.7,3.5 0.1,0 c -2.6,0.9 -5.3,1.3 -8,1.3 -6.7,0 -13,-2.6 -17.7,-7.3 -4.7,-4.7 -7.3,-11 -7.3,-17.7 0,-2.2 0.3,-4.4 0.9,-6.5 l 0.1,-0.3 c 1.6,-13.5 15.6,-34 39.4,-57.8 6,-6 16,-15 16,-15 0,0 10,9 16,15 23.8,23.8 37.8,44.3 39.4,57.8 l 0.1,0.3 c 0.6,2.1 0.9,4.3 0.9,6.5 0,6.7 -2.6,13 -7.3,17.7 -4.7,4.7 -11,7.3 -17.7,7.3 -2.8,0 -5.5,-0.4 -8,-1.3 l 0.1,0 -6.7,-3.5 c -0.1,-0.1 -0.3,-0.2 -0.5,-0.3 -0.5,-0.4 -0.9,-0.7 -1.4,-1.1 -2.4,-2.6 -2.6,-6.6 -0.3,-9.3 0.9,-1.1 1.9,-1.5 4.1,-2.3 0.4,-0.1 0.8,-0.3 1.2,-0.4 l 3.3,-1.2 -2.3,-2.6 c -1.8,-2 -4.3,-2.9 -6.9,-2.6 -3.2,0.3 -6.4,2.4 -8.3,5.3 -3,4.6 -3,10.1 -0.3,14 -0.5,0.3 -0.9,0.7 -1.3,1.1 -1.5,1.5 -2.3,3.5 -2.3,5.6 0,2.1 0.8,4.1 2.3,5.6 l 5.5,5.4 -1.6,-7.4 c 0,-0.2 -0.1,-0.4 -0.1,-0.7 0,-0.9 0.3,-1.7 1,-2.3 0.6,-0.6 1.4,-1 2.3,-1 0.5,0 0.9,0.1 1.4,0.3 0.1,0.1 0.3,0.3 0.4,0.4 5.9,5.9 13.8,9.2 22.1,9.2 17.3,0 31.3,-14 31.3,-31.3 0,-2.7 -0.4,-5.4 -1,-8 -2.5,-19.6 -24.8,-45.6 -43.1,-63.9 -9.3,-9.3 -16.5,-15.5 -16.6,-15.6 l -5.5,-4.7 -5.5,4.7 c -0.1,0.1 -7.3,6.3 -16.6,15.6 -18.3,18.3 -40.6,44.2 -43.1,63.9 -0.7,2.6 -1,5.3 -1,8 -0.4,17.2 13.7,31.3 30.9,31.3 z"
             id="path95"
             style="fill:#ffffff" /><path
             d="m 229.1,278.3 c 5.4,0 10.5,-2.1 14.3,-5.9 0.1,-0.1 0.2,-0.2 0.3,-0.3 0.3,-0.1 0.6,-0.2 0.9,-0.2 0.6,0 1.1,0.2 1.5,0.6 0.4,0.4 0.6,0.9 0.6,1.5 0,0.1 0,0.3 0,0.4 l -1,4.8 3.5,-3.5 c 1,-1 1.5,-2.3 1.5,-3.6 0,-1.4 -0.5,-2.7 -1.5,-3.6 -0.3,-0.3 -0.5,-0.5 -0.8,-0.7 1.8,-2.5 1.8,-6.1 -0.2,-9.1 -1.2,-1.9 -3.3,-3.2 -5.4,-3.4 -1.7,-0.2 -3.3,0.4 -4.5,1.7 l -1.5,1.7 2.1,0.8 c 0.3,0.1 0.5,0.2 0.8,0.3 1.4,0.5 2,0.7 2.6,1.5 1.5,1.8 1.4,4.4 -0.2,6 -0.3,0.3 -0.6,0.5 -0.9,0.7 -0.1,0.1 -0.2,0.1 -0.3,0.2 l -4.4,2.3 0,0 c -1.7,0.6 -3.4,0.9 -5.2,0.9 -4.3,0 -8.4,-1.7 -11.5,-4.8 -3.1,-3.1 -4.8,-7.2 -4.8,-11.5 0,-1.4 0.2,-2.9 0.6,-4.2 l 0,-0.2 c 1.1,-8.7 10.1,-22 25.5,-37.4 3.9,-3.9 10.4,-9.7 10.4,-9.7 0,0 6.5,5.8 10.4,9.7 15.4,15.4 24.5,28.7 25.5,37.4 l 0,0.2 c 0.4,1.4 0.6,2.8 0.6,4.2 0,4.3 -1.7,8.4 -4.8,11.5 -3.1,3.1 -7.2,4.8 -11.5,4.8 -1.8,0 -3.5,-0.3 -5.2,-0.9 l 0,0 -4.4,-2.3 c -0.1,-0.1 -0.2,-0.1 -0.3,-0.2 -0.3,-0.2 -0.6,-0.5 -0.9,-0.7 -1.6,-1.7 -1.7,-4.2 -0.2,-6 0.6,-0.7 1.2,-1 2.6,-1.5 0.2,-0.1 0.5,-0.2 0.8,-0.3 l 2.1,-0.8 -1.5,-1.7 c -1.2,-1.3 -2.8,-1.9 -4.5,-1.7 -2.1,0.2 -4.2,1.6 -5.4,3.4 -1.9,3 -2,6.5 -0.2,9.1 -0.3,0.2 -0.6,0.4 -0.8,0.7 -1,1 -1.5,2.3 -1.5,3.6 0,1.4 0.5,2.7 1.5,3.6 l 3.5,3.5 -1,-4.8 c 0,-0.1 0,-0.3 0,-0.4 0,-0.6 0.2,-1.1 0.6,-1.5 0.4,-0.4 0.9,-0.6 1.5,-0.6 0.3,0 0.6,0.1 0.9,0.2 0.1,0.1 0.2,0.2 0.3,0.3 3.8,3.8 8.9,5.9 14.3,5.9 11.2,0 20.3,-9.1 20.3,-20.3 0,-1.7 -0.2,-3.5 -0.7,-5.2 -1.6,-12.7 -16.1,-29.5 -27.9,-41.4 -6,-6 -10.7,-10.1 -10.7,-10.1 l -3.5,-3.1 -3.5,3.1 c 0,0 -4.7,4.1 -10.7,10.1 -11.9,11.9 -26.3,28.6 -27.9,41.4 -0.4,1.7 -0.7,3.4 -0.7,5.2 0.2,11.2 9.3,20.3 20.5,20.3 z"
             id="path97"
             style="fill:#ffffff" /></g></g><g
         id="g99"><g
           id="g101"><path
             d="m 375.2,225.2 c 0,-8.4 -3.3,-16.2 -9.2,-22.1 -0.1,-0.1 -0.3,-0.3 -0.4,-0.4 -0.2,-0.4 -0.3,-0.9 -0.3,-1.4 0,-0.9 0.3,-1.7 1,-2.3 0.6,-0.6 1.5,-1 2.3,-1 0.2,0 0.5,0 0.7,0.1 l 7.4,1.6 -5.4,-5.5 c -1.5,-1.5 -3.5,-2.3 -5.6,-2.3 -2.1,0 -4.1,0.8 -5.6,2.3 -0.4,0.4 -0.7,0.8 -1.1,1.3 -3.9,-2.8 -9.4,-2.7 -14,0.3 -2.9,1.9 -4.9,5.1 -5.3,8.3 -0.3,2.7 0.6,5.1 2.6,6.9 l 2.6,2.3 1.2,-3.3 c 0.1,-0.4 0.3,-0.8 0.4,-1.2 0.8,-2.2 1.1,-3.1 2.3,-4 2.8,-2.2 6.7,-2.1 9.3,0.3 0.4,0.5 0.8,0.9 1.1,1.4 0.1,0.2 0.2,0.3 0.3,0.5 l 3.5,6.7 0,-0.1 c 0.9,2.6 1.3,5.3 1.3,8 0,6.7 -2.6,13 -7.3,17.7 -4.7,4.7 -11,7.3 -17.7,7.3 -2.2,0 -4.4,-0.3 -6.5,-0.9 l -0.3,-0.1 C 319,244 298.5,230 274.7,206.2 c -6,-6 -15,-16 -15,-16 0,0 9,-10 15,-16 23.8,-23.8 44.3,-37.8 57.8,-39.4 l 0.3,-0.1 c 2.1,-0.6 4.3,-0.9 6.5,-0.9 6.7,0 13,2.6 17.7,7.3 4.7,4.7 7.3,11 7.3,17.7 0,2.8 -0.4,5.5 -1.3,8 l 0,-0.1 -3.5,6.7 c -0.1,0.1 -0.2,0.3 -0.3,0.5 -0.4,0.5 -0.7,0.9 -1.1,1.4 -2.6,2.4 -6.6,2.6 -9.3,0.3 -1.1,-0.9 -1.5,-1.9 -2.3,-4.1 -0.1,-0.4 -0.3,-0.8 -0.4,-1.2 l -1.2,-3.3 -2.6,2.3 c -2,1.8 -2.9,4.3 -2.6,6.9 0.3,3.2 2.4,6.4 5.3,8.3 4.6,3 10.1,3 14,0.3 0.3,0.5 0.6,0.9 1.1,1.3 1.5,1.5 3.5,2.3 5.6,2.3 2.1,0 4.1,-0.8 5.6,-2.3 l 5.4,-5.5 -7.4,1.6 c -0.2,0 -0.4,0.1 -0.7,0.1 -0.9,0 -1.7,-0.3 -2.3,-1 -0.6,-0.6 -1,-1.4 -1,-2.3 0,-0.5 0.1,-0.9 0.3,-1.4 0.1,-0.1 0.3,-0.3 0.4,-0.4 5.9,-5.9 9.2,-13.8 9.2,-22.1 0,-17.3 -14,-31.3 -31.3,-31.3 -2.7,0 -5.4,0.4 -8,1 -19.6,2.5 -45.6,24.8 -63.9,43.1 -9.3,9.3 -15.5,16.5 -15.6,16.6 l -4.7,5.5 4.7,5.5 c 0.1,0.1 6.3,7.3 15.6,16.6 18.3,18.3 44.2,40.6 63.9,43.1 2.6,0.7 5.3,1 8,1 17.2,0.4 31.3,-13.7 31.3,-31 z"
             id="path103"
             style="fill:#ffffff" /><path
             d="m 339.6,213 c 0,-5.4 -2.1,-10.5 -5.9,-14.3 -0.1,-0.1 -0.2,-0.2 -0.3,-0.3 -0.1,-0.3 -0.2,-0.6 -0.2,-0.9 0,-0.6 0.2,-1.1 0.6,-1.5 0.4,-0.4 0.9,-0.6 1.5,-0.6 0.2,0 0.3,0 0.4,0 l 4.8,1 -3.5,-3.5 c -1,-1 -2.3,-1.5 -3.6,-1.5 -1.4,0 -2.7,0.5 -3.6,1.5 -0.3,0.3 -0.5,0.5 -0.7,0.8 -2.5,-1.8 -6.1,-1.8 -9.1,0.2 -1.9,1.2 -3.2,3.3 -3.4,5.4 -0.2,1.7 0.4,3.3 1.7,4.5 l 1.7,1.5 0.8,-2.1 c 0.1,-0.3 0.2,-0.5 0.3,-0.8 0.5,-1.4 0.7,-2 1.5,-2.6 1.8,-1.5 4.4,-1.4 6,0.2 0.3,0.3 0.5,0.6 0.7,0.9 0.1,0.1 0.1,0.2 0.2,0.3 l 2.3,4.4 0,0 c 0.6,1.7 0.9,3.4 0.9,5.2 0,4.3 -1.7,8.4 -4.8,11.5 -3.1,3.1 -7.2,4.8 -11.5,4.8 -1.4,0 -2.9,-0.2 -4.2,-0.6 l -0.2,0 c -8.7,-1.1 -22,-10.1 -37.4,-25.5 -3.9,-3.9 -9.7,-10.4 -9.7,-10.4 0,0 5.8,-6.5 9.7,-10.4 15.4,-15.4 28.7,-24.5 37.4,-25.5 l 0.2,0 c 1.4,-0.4 2.8,-0.6 4.2,-0.6 4.3,0 8.4,1.7 11.5,4.8 3.1,3.1 4.8,7.1 4.8,11.5 0,1.8 -0.3,3.5 -0.9,5.2 l 0,0 -2.3,4.4 c -0.1,0.1 -0.1,0.2 -0.2,0.3 -0.2,0.3 -0.5,0.6 -0.7,0.9 -1.7,1.6 -4.3,1.7 -6,0.2 -0.7,-0.6 -1,-1.2 -1.5,-2.6 -0.1,-0.2 -0.2,-0.5 -0.3,-0.8 l -0.8,-2.1 -1.7,1.5 c -1.3,1.2 -1.9,2.8 -1.7,4.5 0.2,2.1 1.6,4.2 3.4,5.4 3,1.9 6.5,2 9.1,0.2 0.2,0.3 0.4,0.6 0.7,0.8 1,1 2.3,1.5 3.6,1.5 1.4,0 2.7,-0.5 3.6,-1.5 l 3.5,-3.5 -4.8,1 c -0.1,0 -0.3,0 -0.4,0 -0.6,0 -1.1,-0.2 -1.5,-0.6 -0.4,-0.4 -0.6,-0.9 -0.6,-1.5 0,-0.3 0.1,-0.6 0.2,-0.9 0.1,-0.1 0.2,-0.2 0.3,-0.3 3.8,-3.8 5.9,-8.9 5.9,-14.3 0,-11.2 -9.1,-20.3 -20.3,-20.3 -1.7,0 -3.5,0.2 -5.2,0.7 -12.7,1.6 -29.5,16.1 -41.4,27.9 -6,6 -10.1,10.7 -10.1,10.7 l -3.1,3.5 3.1,3.5 c 0,0 4.1,4.7 10.1,10.7 11.9,11.9 28.6,26.3 41.4,27.9 1.7,0.4 3.4,0.7 5.2,0.7 11.2,-0.3 20.4,-9.4 20.3,-20.5 z"
             id="path105"
             style="fill:#ffffff" /></g><g
           id="g107"><path
             d="m 128.2,155.5 c 0,8.4 3.3,16.2 9.2,22.1 0.1,0.1 0.3,0.3 0.4,0.4 0.2,0.4 0.3,0.9 0.3,1.4 0,0.9 -0.3,1.7 -1,2.3 -0.6,0.6 -1.5,1 -2.3,1 -0.2,0 -0.5,0 -0.7,-0.1 l -7.4,-1.6 5.4,5.5 c 1.5,1.5 3.5,2.3 5.6,2.3 2.1,0 4.1,-0.8 5.6,-2.3 0.4,-0.4 0.7,-0.8 1,-1.3 3.9,2.8 9.4,2.7 14,-0.3 2.9,-1.9 4.9,-5.1 5.3,-8.3 0.3,-2.7 -0.6,-5.1 -2.6,-6.9 l -2.6,-2.3 -1.2,3.3 c -0.1,0.4 -0.3,0.8 -0.4,1.2 -0.8,2.2 -1.1,3.1 -2.3,4.1 -2.8,2.2 -6.7,2.1 -9.3,-0.3 -0.4,-0.5 -0.8,-0.9 -1.1,-1.4 -0.1,-0.2 -0.2,-0.3 -0.3,-0.5 l -3.5,-6.7 0,0.1 c -0.9,-2.6 -1.3,-5.3 -1.3,-8 0,-6.7 2.6,-13 7.3,-17.7 4.7,-4.7 11,-7.3 17.7,-7.3 2.2,0 4.4,0.3 6.5,0.9 l 0.3,0.1 c 13.5,1.6 34,15.6 57.8,39.4 6,6 15,16 15,16 0,0 -9,10 -15,16 -23.8,23.8 -44.3,37.8 -57.8,39.4 l -0.3,0.1 c -2.1,0.6 -4.3,0.9 -6.5,0.9 -6.7,0 -13,-2.6 -17.7,-7.3 -4.7,-4.7 -7.3,-11 -7.3,-17.7 0,-2.8 0.4,-5.5 1.3,-8 l 0,0.1 3.5,-6.7 c 0.1,-0.1 0.2,-0.3 0.3,-0.5 0.4,-0.5 0.7,-0.9 1.1,-1.4 2.6,-2.4 6.6,-2.6 9.3,-0.3 1.1,0.9 1.5,1.9 2.3,4 0.1,0.4 0.3,0.8 0.4,1.2 l 1.2,3.3 2.6,-2.3 c 2,-1.8 2.9,-4.3 2.6,-6.9 -0.3,-3.2 -2.4,-6.4 -5.3,-8.3 -4.6,-3 -10.1,-3 -14,-0.3 -0.3,-0.5 -0.6,-0.9 -1,-1.3 -1.5,-1.5 -3.5,-2.3 -5.6,-2.3 -2.1,0 -4.1,0.8 -5.6,2.3 l -5.4,5.5 7.4,-1.6 c 0.2,0 0.4,-0.1 0.7,-0.1 0.9,0 1.7,0.3 2.3,1 0.6,0.6 1,1.4 1,2.3 0,0.5 -0.1,0.9 -0.3,1.4 -0.1,0.1 -0.3,0.3 -0.4,0.4 -5.9,5.9 -9.2,13.8 -9.2,22.1 0,17.3 14,31.3 31.3,31.3 2.7,0 5.4,-0.4 8,-1 19.6,-2.5 45.6,-24.8 63.9,-43.1 9.3,-9.3 15.5,-16.5 15.6,-16.6 l 4.7,-5.5 -4.7,-5.5 c -0.1,-0.1 -6.3,-7.3 -15.6,-16.6 -18.3,-18.3 -44.2,-40.6 -63.9,-43.1 -2.6,-0.7 -5.3,-1 -8,-1 -17.3,-0.3 -31.3,13.8 -31.3,31 z"
             id="path109"
             style="fill:#ffffff" /><path
             d="m 163.7,167.8 c 0,5.4 2.1,10.5 5.9,14.3 0.1,0.1 0.2,0.2 0.3,0.3 0.1,0.3 0.2,0.6 0.2,0.9 0,0.6 -0.2,1.1 -0.6,1.5 -0.4,0.4 -0.9,0.6 -1.5,0.6 -0.2,0 -0.3,0 -0.4,0 l -4.8,-1 3.5,3.5 c 1,1 2.3,1.5 3.6,1.5 1.4,0 2.7,-0.5 3.6,-1.5 0.3,-0.3 0.5,-0.5 0.7,-0.8 2.5,1.8 6.1,1.8 9.1,-0.2 1.9,-1.2 3.2,-3.3 3.4,-5.4 0.2,-1.7 -0.4,-3.3 -1.7,-4.5 l -1.7,-1.5 -0.8,2.1 c -0.1,0.3 -0.2,0.5 -0.3,0.8 -0.5,1.4 -0.7,2 -1.5,2.6 -1.8,1.5 -4.4,1.4 -6,-0.2 -0.3,-0.3 -0.5,-0.6 -0.7,-0.9 -0.1,-0.1 -0.1,-0.2 -0.2,-0.3 l -2.3,-4.4 0,0 c -0.6,-1.7 -0.9,-3.4 -0.9,-5.2 0,-4.3 1.7,-8.4 4.8,-11.5 3.1,-3.1 7.2,-4.8 11.5,-4.8 1.4,0 2.9,0.2 4.2,0.6 l 0.2,0 c 8.7,1.1 22,10.1 37.4,25.5 3.9,3.9 9.7,10.4 9.7,10.4 0,0 -5.8,6.5 -9.7,10.4 -15.4,15.4 -28.7,24.5 -37.4,25.5 l -0.2,0 c -1.4,0.4 -2.8,0.6 -4.2,0.6 -4.3,0 -8.4,-1.7 -11.5,-4.8 -3.1,-3.1 -4.8,-7.2 -4.8,-11.5 0,-1.8 0.3,-3.5 0.9,-5.2 l 0,0 2.3,-4.4 c 0.1,-0.1 0.1,-0.2 0.2,-0.3 0.2,-0.3 0.5,-0.6 0.7,-0.9 1.7,-1.6 4.3,-1.7 6,-0.2 0.7,0.6 1,1.2 1.5,2.6 0.1,0.2 0.2,0.5 0.3,0.8 l 0.8,2.1 1.7,-1.5 c 1.3,-1.2 1.9,-2.8 1.7,-4.5 -0.2,-2.1 -1.6,-4.2 -3.4,-5.4 -3,-1.9 -6.5,-2 -9.1,-0.2 -0.2,-0.3 -0.4,-0.6 -0.7,-0.8 -1,-1 -2.3,-1.5 -3.6,-1.5 -1.4,0 -2.7,0.5 -3.6,1.5 l -3.5,3.5 4.8,-1 c 0.1,0 0.3,0 0.4,0 0.6,0 1.1,0.2 1.5,0.6 0.4,0.4 0.6,0.9 0.6,1.5 0,0.3 -0.1,0.6 -0.2,0.9 -0.1,0.1 -0.2,0.2 -0.3,0.3 -3.8,3.8 -5.9,8.9 -5.9,14.3 0,11.2 9.1,20.3 20.3,20.3 1.7,0 3.5,-0.2 5.2,-0.7 12.7,-1.6 29.5,-16.1 41.4,-27.9 6,-6 10.1,-10.7 10.1,-10.7 l 3.1,-3.5 -3.1,-3.5 c 0,0 -4.1,-4.7 -10.1,-10.7 C 218.7,164 202,149.6 189.2,148 c -1.7,-0.4 -3.4,-0.7 -5.2,-0.7 -11.2,0.2 -20.3,9.3 -20.3,20.5 z"
             id="path111"
             style="fill:#ffffff" /></g></g></g><g
       id="g113"><g
         id="g115"><path
           d="m 158.7,122.1 c 3,-3 4.6,-6.9 4.6,-11.1 0,-0.1 0,-0.2 0,-0.3 0.1,-0.2 0.2,-0.4 0.4,-0.6 0.3,-0.3 0.7,-0.5 1.2,-0.5 0.4,0 0.9,0.2 1.2,0.5 0.1,0.1 0.2,0.2 0.2,0.3 l 2.1,3.2 0,-3.8 c 0,-1.1 -0.4,-2.1 -1.2,-2.8 -0.7,-0.8 -1.7,-1.2 -2.8,-1.2 -0.3,0 -0.6,0 -0.8,0.1 -0.4,-2.4 -2.4,-4.3 -5.1,-4.9 -1.7,-0.4 -3.6,0.1 -4.8,1.1 -1,0.8 -1.6,2 -1.5,3.4 l 0.1,1.7 1.6,-0.7 c 0.2,-0.1 0.4,-0.2 0.6,-0.3 1,-0.5 1.5,-0.7 2.2,-0.6 1.8,0.2 3.1,1.6 3.2,3.4 0,0.3 -0.1,0.6 -0.1,0.9 0,0.1 0,0.2 -0.1,0.3 l -1.1,3.6 0,0 c -0.6,1.2 -1.4,2.3 -2.4,3.3 -2.4,2.4 -5.5,3.7 -8.9,3.7 -3.4,0 -6.5,-1.3 -8.9,-3.7 -0.8,-0.8 -1.5,-1.7 -2,-2.6 l -0.1,-0.1 c -4.2,-5.4 -6.5,-17.6 -6.5,-34.4 0,-4.3 0.4,-11 0.4,-11 0,0 6.7,-0.4 11,-0.4 16.8,0 29.1,2.3 34.4,6.5 l 0.1,0.1 c 1,0.5 1.8,1.2 2.6,2 2.4,2.4 3.7,5.5 3.7,8.9 0,3.4 -1.3,6.5 -3.7,8.9 -1,1 -2.1,1.8 -3.3,2.4 l 0,0 -3.6,1.1 c -0.1,0 -0.2,0 -0.3,0.1 -0.3,0 -0.6,0.1 -0.9,0.1 -1.8,0 -3.2,-1.4 -3.4,-3.2 -0.1,-0.7 0.1,-1.2 0.6,-2.2 0.1,-0.2 0.2,-0.4 0.3,-0.6 l 0.7,-1.6 -1.7,-0.1 c -1.3,-0.1 -2.5,0.5 -3.4,1.5 -1,1.2 -1.4,3.1 -1.1,4.8 0.6,2.7 2.5,4.6 4.9,5.1 -0.1,0.3 -0.1,0.5 -0.1,0.8 0,1.1 0.4,2.1 1.2,2.8 0.7,0.7 1.7,1.2 2.8,1.2 l 3.8,0 -3.2,-2.1 c -0.1,-0.1 -0.2,-0.1 -0.3,-0.2 -0.3,-0.3 -0.5,-0.7 -0.5,-1.2 0,-0.4 0.2,-0.9 0.5,-1.2 0.2,-0.2 0.4,-0.3 0.6,-0.4 0.1,0 0.2,0 0.3,0 4.2,0 8.1,-1.6 11.1,-4.6 6.1,-6.1 6.1,-16.1 0,-22.2 -1,-1 -2,-1.8 -3.2,-2.5 -7.8,-6.1 -24.9,-7.3 -37.9,-7.3 -6.6,0 -11.3,0.3 -11.4,0.3 l -3.6,0.3 -0.3,3.6 c 0,0 -0.3,4.8 -0.3,11.4 0,13 1.3,30 7.3,37.9 0.7,1.2 1.5,2.2 2.5,3.2 6.2,6 16.2,6 22.3,-0.1 z"
           id="path117"
           style="fill:#ffffff" /><path
           d="m 150.4,105.1 c 1.9,-1.9 3,-4.5 3,-7.2 0,-0.1 0,-0.1 0,-0.2 0,-0.1 0.1,-0.3 0.2,-0.4 0.2,-0.2 0.5,-0.3 0.8,-0.3 0.3,0 0.6,0.1 0.8,0.3 0.1,0.1 0.1,0.1 0.1,0.2 l 1.3,2.1 0,-2.5 c 0,-0.7 -0.3,-1.3 -0.8,-1.8 -0.5,-0.5 -1.1,-0.8 -1.8,-0.8 -0.2,0 -0.4,0 -0.5,0.1 -0.3,-1.5 -1.5,-2.8 -3.3,-3.2 -1.1,-0.2 -2.3,0 -3.1,0.7 -0.7,0.5 -1,1.3 -1,2.2 l 0,1.1 1,-0.5 c 0.1,-0.1 0.2,-0.1 0.4,-0.2 0.7,-0.3 1,-0.5 1.4,-0.4 1.1,0.1 2,1.1 2.1,2.2 0,0.2 0,0.4 -0.1,0.6 0,0.1 0,0.1 0,0.2 l -0.7,2.4 0,0 c -0.4,0.8 -0.9,1.5 -1.5,2.1 -1.5,1.5 -3.6,2.4 -5.8,2.4 -2.2,0 -4.2,-0.8 -5.8,-2.4 -0.5,-0.5 -0.9,-1.1 -1.3,-1.7 l -0.1,-0.1 c -2.7,-3.5 -4.2,-11.4 -4.2,-22.3 0,-2.8 0.2,-7.1 0.2,-7.1 0,0 4.4,-0.2 7.1,-0.2 10.9,0 18.8,1.5 22.3,4.2 l 0.1,0.1 c 0.6,0.4 1.2,0.8 1.7,1.3 1.5,1.5 2.4,3.6 2.4,5.8 0,2.2 -0.8,4.2 -2.4,5.8 -0.6,0.6 -1.4,1.1 -2.1,1.5 l 0,0 -2.4,0.7 c -0.1,0 -0.1,0 -0.2,0 -0.2,0 -0.4,0 -0.6,0.1 -1.1,0 -2.1,-0.9 -2.2,-2.1 0,-0.5 0.1,-0.8 0.4,-1.4 0.1,-0.1 0.1,-0.2 0.2,-0.4 l 0.5,-1 -1.1,0 c -0.9,0 -1.6,0.3 -2.2,1 -0.7,0.8 -0.9,2 -0.7,3.1 0.4,1.7 1.6,3 3.2,3.3 0,0.2 -0.1,0.4 -0.1,0.5 0,0.7 0.3,1.3 0.8,1.8 0.5,0.5 1.1,0.8 1.8,0.8 l 2.5,0 -2.1,-1.3 c -0.1,0 -0.1,-0.1 -0.2,-0.1 -0.2,-0.2 -0.3,-0.5 -0.3,-0.8 0,-0.3 0.1,-0.6 0.3,-0.8 0.1,-0.1 0.2,-0.2 0.4,-0.2 0.1,0 0.1,0 0.2,0 2.7,0 5.3,-1.1 7.2,-3 4,-4 4,-10.4 0,-14.4 -0.6,-0.6 -1.3,-1.2 -2.1,-1.6 -5.1,-3.9 -16.1,-4.8 -24.5,-4.8 -4.2,0 -7.3,0.2 -7.4,0.2 l -2.3,0.2 -0.2,2.3 c 0,0 -0.2,3.1 -0.2,7.4 0,8.4 0.8,19.5 4.8,24.5 0.4,0.8 1,1.5 1.6,2.1 4.1,3.9 10.6,3.9 14.5,-0.1 z"
           id="path119"
           style="fill:#ffffff" /></g><g
         id="g121"><path
           d="m 344.7,258.7 c -3,3 -4.6,6.9 -4.6,11.1 0,0.1 0,0.2 0,0.3 -0.1,0.2 -0.2,0.4 -0.4,0.6 -0.3,0.3 -0.7,0.5 -1.2,0.5 -0.4,0 -0.9,-0.2 -1.2,-0.5 -0.1,-0.1 -0.2,-0.2 -0.2,-0.3 l -2.1,-3.2 0,3.8 c 0,1.1 0.4,2.1 1.2,2.8 0.7,0.8 1.7,1.2 2.8,1.2 0.3,0 0.6,0 0.8,-0.1 0.4,2.4 2.4,4.3 5.1,4.9 1.7,0.4 3.6,-0.1 4.8,-1.1 1,-0.8 1.6,-2 1.5,-3.4 l -0.1,-1.7 -1.6,0.7 c -0.2,0.1 -0.4,0.2 -0.6,0.3 -1,0.5 -1.5,0.7 -2.2,0.6 -1.8,-0.2 -3.1,-1.6 -3.2,-3.4 0,-0.3 0.1,-0.6 0.1,-0.9 0,-0.1 0,-0.2 0.1,-0.3 l 1.1,-3.6 0,0 c 0.6,-1.2 1.4,-2.3 2.4,-3.3 2.4,-2.4 5.5,-3.7 8.9,-3.7 3.4,0 6.5,1.3 8.9,3.7 0.8,0.8 1.5,1.7 2,2.6 l 0.1,0.1 c 4.2,5.4 6.5,17.6 6.5,34.4 0,4.3 -0.4,11 -0.4,11 0,0 -6.7,0.4 -11,0.4 -16.8,0 -29.1,-2.3 -34.4,-6.5 l -0.1,-0.1 c -1,-0.5 -1.8,-1.2 -2.6,-2 -2.4,-2.4 -3.7,-5.5 -3.7,-8.9 0,-3.4 1.3,-6.5 3.7,-8.9 1,-1 2.1,-1.8 3.3,-2.4 l 0,0 3.6,-1.1 c 0.1,0 0.2,0 0.3,-0.1 0.3,0 0.6,-0.1 0.9,-0.1 1.8,0 3.2,1.4 3.4,3.2 0.1,0.7 -0.1,1.2 -0.6,2.2 -0.1,0.2 -0.2,0.4 -0.3,0.6 l -0.7,1.6 1.7,0.1 c 1.3,0.1 2.5,-0.5 3.4,-1.5 1,-1.2 1.4,-3.1 1.1,-4.8 -0.6,-2.7 -2.5,-4.6 -4.9,-5.1 0.1,-0.3 0.1,-0.6 0.1,-0.8 0,-1.1 -0.4,-2.1 -1.2,-2.8 -0.7,-0.7 -1.7,-1.2 -2.8,-1.2 l -3.8,0 3.2,2.1 c 0.1,0.1 0.2,0.1 0.3,0.2 0.3,0.3 0.5,0.7 0.5,1.2 0,0.4 -0.2,0.9 -0.5,1.2 -0.2,0.2 -0.4,0.3 -0.6,0.4 -0.1,0 -0.2,0 -0.3,0 -4.2,0 -8.1,1.6 -11.1,4.6 -6.1,6.1 -6.1,16.1 0,22.2 1,1 2,1.8 3.2,2.5 7.8,6.1 24.9,7.3 37.9,7.3 6.6,0 11.3,-0.3 11.4,-0.3 l 3.6,-0.3 0.3,-3.6 c 0,0 0.3,-4.8 0.3,-11.4 0,-13 -1.3,-30 -7.3,-37.9 -0.7,-1.2 -1.5,-2.2 -2.5,-3.2 -6.2,-6 -16.2,-6 -22.3,0.1 z"
           id="path123"
           style="fill:#ffffff" /><path
           d="m 352.9,275.6 c -1.9,1.9 -3,4.5 -3,7.2 0,0.1 0,0.1 0,0.2 -0.1,0.1 -0.1,0.3 -0.2,0.4 -0.2,0.2 -0.5,0.3 -0.8,0.3 -0.3,0 -0.6,-0.1 -0.8,-0.3 -0.1,-0.1 -0.1,-0.1 -0.1,-0.2 l -1.3,-2.1 0,2.5 c 0,0.7 0.3,1.3 0.8,1.8 0.5,0.5 1.1,0.8 1.8,0.8 0.2,0 0.4,0 0.5,-0.1 0.3,1.5 1.5,2.8 3.3,3.2 1.1,0.2 2.3,0 3.1,-0.7 0.7,-0.5 1,-1.3 1,-2.2 l 0,-1.1 -1,0.5 c -0.1,0.1 -0.2,0.1 -0.4,0.2 -0.7,0.3 -1,0.5 -1.4,0.4 -1.1,-0.1 -2,-1.1 -2.1,-2.2 0,-0.2 0,-0.4 0.1,-0.6 0,-0.1 0,-0.1 0,-0.2 l 0.7,-2.4 0,0 c 0.4,-0.8 0.9,-1.5 1.5,-2.1 1.5,-1.5 3.6,-2.4 5.8,-2.4 2.2,0 4.2,0.8 5.8,2.4 0.5,0.5 0.9,1.1 1.3,1.7 l 0.1,0.1 c 2.7,3.5 4.2,11.4 4.2,22.3 0,2.8 -0.2,7.1 -0.2,7.1 0,0 -4.4,0.2 -7.1,0.2 -10.9,0 -18.8,-1.5 -22.3,-4.2 l -0.1,-0.1 c -0.6,-0.4 -1.2,-0.8 -1.7,-1.3 -1.5,-1.5 -2.4,-3.6 -2.4,-5.8 0,-2.2 0.8,-4.2 2.4,-5.8 0.6,-0.6 1.4,-1.1 2.1,-1.5 l 0,0 2.4,-0.7 c 0.1,0 0.1,0 0.2,0 0.2,0 0.4,0 0.6,-0.1 1.1,0 2.1,0.9 2.2,2.1 0,0.5 -0.1,0.8 -0.4,1.4 -0.1,0.1 -0.1,0.2 -0.2,0.4 l -0.5,1 1.1,0.1 c 0.9,0 1.6,-0.3 2.2,-1 0.7,-0.8 0.9,-2 0.7,-3.1 -0.4,-1.7 -1.6,-3 -3.2,-3.3 0,-0.2 0.1,-0.4 0.1,-0.5 0,-0.7 -0.3,-1.3 -0.8,-1.8 -0.5,-0.5 -1.1,-0.8 -1.8,-0.8 l -2.5,0 2.1,1.3 c 0.1,0 0.1,0.1 0.2,0.1 0.2,0.2 0.3,0.5 0.3,0.8 0,0.3 -0.1,0.6 -0.3,0.8 -0.1,0.1 -0.2,0.2 -0.4,0.2 -0.1,0 -0.1,0 -0.2,0 -2.7,0 -5.3,1.1 -7.2,3 -4,4 -4,10.4 0,14.4 0.6,0.6 1.3,1.2 2.1,1.6 5.1,3.9 16.1,4.8 24.5,4.8 4.2,0 7.3,-0.2 7.4,-0.2 l 2.3,-0.2 0.2,-2.3 c 0,0 0.2,-3.1 0.2,-7.4 0,-8.4 -0.8,-19.5 -4.8,-24.5 -0.4,-0.8 -1,-1.5 -1.6,-2.1 -4.1,-3.9 -10.5,-3.9 -14.5,0 z"
           id="path125"
           style="fill:#ffffff" /></g></g><g
       id="g127"><g
         id="g129"><path
           d="m 320,97.4 c 3,3 6.9,4.6 11.1,4.6 0.1,0 0.2,0 0.3,0 0.2,0.1 0.4,0.2 0.6,0.4 0.3,0.3 0.5,0.7 0.5,1.2 0,0.4 -0.2,0.9 -0.5,1.2 -0.1,0.1 -0.2,0.2 -0.3,0.2 l -3.2,2.1 3.8,0 c 1.1,0 2.1,-0.4 2.8,-1.2 0.8,-0.7 1.2,-1.7 1.2,-2.8 0,-0.3 0,-0.6 -0.1,-0.8 2.4,-0.4 4.3,-2.4 4.9,-5.1 0.4,-1.7 -0.1,-3.6 -1.1,-4.8 -0.8,-1 -2,-1.6 -3.4,-1.5 l -1.7,0.1 0.7,1.6 c 0.1,0.2 0.2,0.4 0.3,0.6 0.5,1 0.7,1.5 0.6,2.2 -0.2,1.8 -1.6,3.1 -3.4,3.2 -0.3,0 -0.6,-0.1 -0.9,-0.1 -0.1,0 -0.2,0 -0.3,-0.1 l -3.6,-1.1 0,0 c -1.2,-0.6 -2.3,-1.4 -3.3,-2.4 -2.4,-2.4 -3.7,-5.5 -3.7,-8.9 0,-3.4 1.3,-6.5 3.7,-8.9 0.8,-0.8 1.7,-1.5 2.6,-2 l 0.1,-0.1 c 5.4,-4.2 17.6,-6.5 34.4,-6.5 4.3,0 11,0.4 11,0.4 0,0 0.4,6.7 0.4,11 0,16.8 -2.3,29.1 -6.5,34.4 l -0.1,0.1 c -0.5,1 -1.2,1.8 -2,2.6 -2.4,2.4 -5.5,3.7 -8.9,3.7 -3.4,0 -6.5,-1.3 -8.9,-3.7 -1,-1 -1.8,-2.1 -2.4,-3.3 l 0,0 -1.1,-3.6 c 0,-0.1 0,-0.2 -0.1,-0.3 0,-0.3 -0.1,-0.6 -0.1,-0.9 0,-1.8 1.4,-3.2 3.2,-3.4 0.7,-0.1 1.2,0.1 2.2,0.6 0.2,0.1 0.4,0.2 0.6,0.3 l 1.6,0.7 0.1,-1.7 c 0.1,-1.3 -0.5,-2.5 -1.5,-3.4 -1.2,-1 -3.1,-1.4 -4.8,-1.1 -2.7,0.6 -4.6,2.5 -5.1,4.9 -0.3,-0.1 -0.6,-0.1 -0.8,-0.1 -1.1,0 -2.1,0.4 -2.8,1.2 -0.7,0.7 -1.2,1.7 -1.2,2.8 l 0,3.8 2.1,-3.2 c 0.1,-0.1 0.1,-0.2 0.2,-0.3 0.3,-0.3 0.7,-0.5 1.2,-0.5 0.4,0 0.9,0.2 1.2,0.5 0.2,0.2 0.3,0.4 0.4,0.6 0,0.1 0,0.2 0,0.3 0,4.2 1.6,8.1 4.6,11.1 6.1,6.1 16.1,6.1 22.2,0 1,-1 1.8,-2 2.5,-3.2 6.1,-7.8 7.3,-24.9 7.3,-37.9 0,-6.6 -0.3,-11.3 -0.3,-11.4 l -0.3,-3.6 -3.6,-0.3 c 0,0 -4.8,-0.3 -11.4,-0.3 -13,0 -30,1.3 -37.9,7.3 -1.2,0.7 -2.2,1.5 -3.2,2.5 -6,6.2 -6,16.2 0.1,22.3 z"
           id="path131"
           style="fill:#ffffff" /><path
           d="m 337,89.1 c 1.9,1.9 4.5,3 7.2,3 0.1,0 0.1,0 0.2,0 0.1,0.1 0.3,0.1 0.4,0.2 0.2,0.2 0.3,0.5 0.3,0.8 0,0.3 -0.1,0.6 -0.3,0.8 -0.1,0.1 -0.1,0.1 -0.2,0.1 l -2.1,1.3 2.5,0 c 0.7,0 1.3,-0.3 1.8,-0.8 0.5,-0.5 0.8,-1.1 0.8,-1.8 0,-0.2 0,-0.4 -0.1,-0.5 1.5,-0.3 2.8,-1.5 3.2,-3.3 0.2,-1.1 0,-2.3 -0.7,-3.1 -0.5,-0.7 -1.3,-1 -2.2,-1 l -1.1,0 0.5,1 c 0.1,0.1 0.1,0.2 0.2,0.4 0.3,0.7 0.5,1 0.4,1.4 -0.1,1.1 -1.1,2 -2.2,2.1 -0.2,0 -0.4,0 -0.6,-0.1 -0.1,0 -0.1,0 -0.2,0 l -2.4,-0.7 0,0 c -0.8,-0.4 -1.5,-0.9 -2.1,-1.5 -1.5,-1.5 -2.4,-3.6 -2.4,-5.8 0,-2.2 0.8,-4.2 2.4,-5.8 0.5,-0.5 1.1,-0.9 1.7,-1.3 l 0.1,-0.1 c 3.5,-2.7 11.4,-4.2 22.3,-4.2 2.8,0 7.1,0.2 7.1,0.2 0,0 0.2,4.4 0.2,7.1 0,10.9 -1.5,18.8 -4.2,22.3 l -0.1,0.1 c -0.4,0.6 -0.8,1.2 -1.3,1.7 -1.5,1.5 -3.6,2.4 -5.8,2.4 -2.2,0 -4.2,-0.8 -5.8,-2.4 -0.6,-0.6 -1.1,-1.4 -1.5,-2.1 l 0,0 -0.7,-2.4 c 0,-0.1 0,-0.1 0,-0.2 0,-0.2 0,-0.4 -0.1,-0.6 0,-1.1 0.9,-2.1 2.1,-2.2 0.5,0 0.8,0.1 1.4,0.4 0.1,0.1 0.2,0.1 0.4,0.2 l 1,0.5 0.1,-1.1 c 0,-0.9 -0.3,-1.6 -1,-2.2 -0.8,-0.7 -2,-0.9 -3.1,-0.7 -1.7,0.4 -3,1.6 -3.3,3.2 -0.2,0 -0.4,-0.1 -0.5,-0.1 -0.7,0 -1.3,0.3 -1.8,0.8 -0.5,0.5 -0.8,1.1 -0.8,1.8 l 0,2.5 1.4,-2.1 c 0,-0.1 0.1,-0.1 0.1,-0.2 0.2,-0.2 0.5,-0.3 0.8,-0.3 0.3,0 0.6,0.1 0.8,0.3 0.1,0.1 0.2,0.2 0.2,0.4 0,0.1 0,0.1 0,0.2 0,2.7 1.1,5.3 3,7.2 4,4 10.4,4 14.4,0 0.6,-0.6 1.2,-1.3 1.6,-2.1 3.9,-5.1 4.8,-16.1 4.8,-24.5 0,-4.2 -0.2,-7.3 -0.2,-7.4 l -0.2,-2.3 -2.3,-0.2 c 0,0 -3.1,-0.2 -7.4,-0.2 -8.4,0 -19.5,0.8 -24.5,4.8 -0.8,0.4 -1.5,1 -2.1,1.6 -4.1,4.1 -4.1,10.6 -0.1,14.5 z"
           id="path133"
           style="fill:#ffffff" /></g><g
         id="g135"><path
           d="m 183.4,283.4 c -3,-3 -6.9,-4.6 -11.1,-4.6 -0.1,0 -0.2,0 -0.3,0 -0.2,-0.1 -0.4,-0.2 -0.6,-0.4 -0.3,-0.3 -0.5,-0.7 -0.5,-1.2 0,-0.4 0.2,-0.9 0.5,-1.2 0.1,-0.1 0.2,-0.2 0.3,-0.2 l 3.2,-2.1 -3.8,0 c -1.1,0 -2.1,0.4 -2.8,1.2 -0.8,0.7 -1.2,1.7 -1.2,2.8 0,0.3 0,0.6 0.1,0.8 -2.4,0.4 -4.3,2.4 -4.9,5.1 -0.4,1.7 0.1,3.6 1.1,4.8 0.8,1 2,1.6 3.4,1.5 l 1.7,-0.1 -0.7,-1.6 c -0.1,-0.2 -0.2,-0.4 -0.3,-0.6 -0.5,-1 -0.7,-1.5 -0.6,-2.2 0.2,-1.8 1.6,-3.1 3.4,-3.2 0.3,0 0.6,0.1 0.9,0.1 0.1,0 0.2,0 0.3,0.1 l 3.6,1.1 0,0 c 1.2,0.6 2.3,1.4 3.3,2.4 2.4,2.4 3.7,5.5 3.7,8.9 0,3.4 -1.3,6.5 -3.7,8.9 -0.8,0.8 -1.7,1.5 -2.6,2 l -0.1,0.1 c -5.4,4.2 -17.6,6.5 -34.4,6.5 -4.3,0 -11,-0.4 -11,-0.4 0,0 -0.4,-6.7 -0.4,-11 0,-16.8 2.3,-29.1 6.5,-34.4 l 0.1,-0.1 c 0.5,-1 1.2,-1.8 2,-2.6 2.4,-2.4 5.5,-3.7 8.9,-3.7 3.4,0 6.5,1.3 8.9,3.7 1,1 1.8,2.1 2.4,3.3 l 0,0 1.1,3.6 c 0,0.1 0,0.2 0.1,0.3 0,0.3 0.1,0.6 0.1,0.9 0,1.8 -1.4,3.2 -3.2,3.4 -0.7,0.1 -1.2,-0.1 -2.2,-0.6 -0.2,-0.1 -0.4,-0.2 -0.6,-0.3 l -1.6,-0.7 -0.1,1.7 c -0.1,1.3 0.5,2.5 1.5,3.4 1.2,1 3.1,1.4 4.8,1.1 2.7,-0.6 4.6,-2.5 5.1,-4.9 0.3,0.1 0.6,0.1 0.8,0.1 1.1,0 2.1,-0.4 2.8,-1.2 0.7,-0.7 1.2,-1.7 1.2,-2.8 l 0,-3.8 -2.1,3.2 c -0.1,0.1 -0.1,0.2 -0.2,0.3 -0.3,0.3 -0.7,0.5 -1.2,0.5 -0.4,0 -0.9,-0.2 -1.2,-0.5 -0.2,-0.2 -0.3,-0.4 -0.4,-0.6 0,-0.1 0,-0.2 0,-0.3 0,-4.2 -1.6,-8.1 -4.6,-11.1 -6.1,-6.1 -16.1,-6.1 -22.2,0 -1,1 -1.8,2 -2.5,3.2 -6.1,7.8 -7.3,24.9 -7.3,37.9 0,6.6 0.3,11.3 0.3,11.4 l 0.3,3.6 3.6,0.3 c 0,0 4.8,0.3 11.4,0.3 13,0 30,-1.3 37.9,-7.3 1.2,-0.7 2.2,-1.5 3.2,-2.5 6,-6.2 6,-16.2 -0.1,-22.3 z"
           id="path137"
           style="fill:#ffffff" /><path
           d="m 166.4,291.6 c -1.9,-1.9 -4.5,-3 -7.2,-3 -0.1,0 -0.1,0 -0.2,0 -0.1,-0.1 -0.3,-0.1 -0.4,-0.2 -0.2,-0.2 -0.3,-0.5 -0.3,-0.8 0,-0.3 0.1,-0.6 0.3,-0.8 0.1,-0.1 0.1,-0.1 0.2,-0.1 l 2.1,-1.3 -2.5,0 c -0.7,0 -1.3,0.3 -1.8,0.8 -0.5,0.5 -0.8,1.1 -0.8,1.8 0,0.2 0,0.4 0.1,0.5 -1.5,0.3 -2.8,1.5 -3.2,3.3 -0.2,1.1 0,2.3 0.7,3.1 0.5,0.7 1.3,1 2.2,1 l 1.1,0 -0.5,-1 c -0.1,-0.1 -0.1,-0.2 -0.2,-0.4 -0.3,-0.7 -0.5,-1 -0.4,-1.4 0.1,-1.1 1.1,-2 2.2,-2.1 0.2,0 0.4,0 0.6,0.1 0.1,0 0.1,0 0.2,0 l 2.4,0.7 0,0 c 0.8,0.4 1.5,0.9 2.1,1.5 1.5,1.5 2.4,3.6 2.4,5.8 0,2.2 -0.8,4.2 -2.4,5.8 -0.5,0.5 -1.1,0.9 -1.7,1.3 l -0.1,0.1 c -3.5,2.7 -11.4,4.2 -22.3,4.2 -2.8,0 -7.1,-0.2 -7.1,-0.2 0,0 -0.2,-4.4 -0.2,-7.1 0,-10.9 1.5,-18.8 4.2,-22.3 l 0.1,-0.1 c 0.4,-0.6 0.8,-1.2 1.3,-1.7 1.5,-1.5 3.6,-2.4 5.8,-2.4 2.2,0 4.2,0.8 5.8,2.4 0.6,0.6 1.1,1.4 1.5,2.1 l 0,0 0.7,2.4 c 0,0.1 0,0.1 0,0.2 0,0.2 0,0.4 0.1,0.6 0,1.1 -0.9,2.1 -2.1,2.2 -0.5,0 -0.8,-0.1 -1.4,-0.4 -0.1,-0.1 -0.2,-0.1 -0.4,-0.2 l -1,-0.5 -0.1,1.1 c 0,0.9 0.3,1.6 1,2.2 0.8,0.7 2,0.9 3.1,0.7 1.7,-0.4 3,-1.6 3.3,-3.2 0.2,0 0.4,0.1 0.5,0.1 0.7,0 1.3,-0.3 1.8,-0.8 0.5,-0.5 0.8,-1.1 0.8,-1.8 l 0,-2.5 -1.3,2.1 c 0,0.1 -0.1,0.1 -0.1,0.2 -0.2,0.2 -0.5,0.3 -0.8,0.3 -0.3,0 -0.6,-0.1 -0.8,-0.3 -0.1,-0.1 -0.2,-0.2 -0.2,-0.4 0,-0.1 0,-0.1 0,-0.2 0,-2.7 -1.1,-5.3 -3,-7.2 -4,-4 -10.4,-4 -14.4,0 -0.6,0.6 -1.2,1.3 -1.6,2.1 -3.9,5.1 -4.8,16.1 -4.8,24.5 0,4.2 0.2,7.3 0.2,7.4 l 0.2,2.3 2.3,0.2 c 0,0 3.1,0.2 7.4,0.2 8.4,0 19.5,-0.8 24.5,-4.8 0.8,-0.4 1.5,-1 2.1,-1.6 4,-4.1 4,-10.5 0,-14.5 z"
           id="path139"
           style="fill:#ffffff" /></g></g></g></svg>