<?xml version="1.0" encoding="UTF-8" standalone="no"?>
<!-- Generator: Adobe Illustrator 19.2.0, SVG Export Plug-In . SVG Version: 6.00 Build 0)  -->

<svg
   xmlns:dc="http://purl.org/dc/elements/1.1/"
   xmlns:cc="http://creativecommons.org/ns#"
   xmlns:rdf="http://www.w3.org/1999/02/22-rdf-syntax-ns#"
   xmlns:svg="http://www.w3.org/2000/svg"
   xmlns="http://www.w3.org/2000/svg"
   xmlns:sodipodi="http://sodipodi.sourceforge.net/DTD/sodipodi-0.dtd"
   xmlns:inkscape="http://www.inkscape.org/namespaces/inkscape"
   version="1.1"
   id="Layer_1"
   x="0px"
   y="0px"
   viewBox="0 0 563 563.20001"
   xml:space="preserve"
   inkscape:version="0.91 r13725"
   sodipodi:docname="LOGO DICORE.svg"
   width="563"
   height="563.20001"><metadata
     id="metadata3510"><rdf:RDF><cc:Work
         rdf:about=""><dc:format>image/svg+xml</dc:format><dc:type
           rdf:resource="http://purl.org/dc/dcmitype/StillImage" /><dc:title></dc:title></cc:Work></rdf:RDF></metadata><defs
     id="defs3508" /><sodipodi:namedview
     pagecolor="#ffffff"
     bordercolor="#666666"
     borderopacity="1"
     objecttolerance="10"
     gridtolerance="10"
     guidetolerance="10"
     inkscape:pageopacity="0"
     inkscape:pageshadow="2"
     inkscape:window-width="1366"
     inkscape:window-height="714"
     id="namedview3506"
     showgrid="false"
     fit-margin-top="0"
     fit-margin-left="0"
     fit-margin-right="0"
     fit-margin-bottom="0"
     inkscape:zoom="0.56041667"
     inkscape:cx="281.6"
     inkscape:cy="354.25924"
     inkscape:window-x="0"
     inkscape:window-y="158"
     inkscape:window-maximized="1"
     inkscape:current-layer="g3446" /><style
     type="text/css"
     id="style3444">
	.st0{fill:#FFFFFF;}
</style><g
     id="g3446"
     transform="translate(-198.4,-199.1)"><g
       id="g3448"><g
         id="g3450"><g
           id="g3452"><path
             class="st0"
             d="m 558.3,202.9 c -18.9,0 -36.4,7.4 -49.7,20.7 -0.2,0.2 -0.7,0.7 -0.9,0.9 -0.9,0.4 -2,0.7 -3.1,0.7 -2,0 -3.8,-0.7 -5.2,-2.2 -1.3,-1.3 -2.2,-3.4 -2.2,-5.2 0,-0.4 0,-1.1 0.2,-1.6 l 3.6,-16.6 -12.4,12.1 c -3.4,3.4 -5.2,7.9 -5.2,12.6 0,4.7 1.8,9.2 5.2,12.6 0.9,0.9 1.8,1.6 2.9,2.2 -6.3,8.8 -6.1,21.1 0.7,31.5 4.3,6.5 11.5,11 18.7,11.9 6.1,0.7 11.5,-1.3 15.5,-5.8 l 5.2,-5.8 -7.4,-2.7 c -0.9,-0.2 -1.8,-0.7 -2.7,-0.9 -4.9,-1.8 -7,-2.5 -9.2,-5.2 -4.9,-6.3 -4.7,-15.1 0.7,-20.9 1.1,-0.9 2,-1.8 3.1,-2.5 0.4,-0.2 0.7,-0.4 1.1,-0.7 l 15.1,-7.9 -0.3,0 c 5.8,-2 11.9,-2.9 18,-2.9 15.1,0 29.2,5.8 39.8,16.4 10.6,10.6 16.4,24.7 16.4,39.8 0,4.9 -0.7,9.9 -2,14.6 l -0.2,0.7 c -3.6,30.4 -35.1,76.5 -88.6,130 -13.5,13.5 -36,33.7 -36,33.7 0,0 -22.5,-20.2 -36,-33.7 -53.5,-53.5 -85,-99.6 -88.6,-130 l -0.2,-0.7 c -1.3,-4.7 -2,-9.7 -2,-14.6 0,-15.1 5.8,-29.2 16.4,-39.8 10.6,-10.6 24.7,-16.4 39.8,-16.4 6.3,0 12.4,0.9 18,2.9 l -0.2,0 15.1,7.9 c 0.2,0.2 0.7,0.4 1.1,0.7 1.1,0.7 2,1.6 3.1,2.5 5.4,5.8 5.8,14.8 0.7,20.9 -2,2.5 -4.3,3.4 -9.2,5.2 -0.9,0.2 -1.8,0.7 -2.7,0.9 l -7.4,2.7 5.2,5.8 c 4,4.5 9.7,6.5 15.5,5.8 7.2,-0.7 14.4,-5.4 18.7,-11.9 6.7,-10.3 6.7,-22.7 0.7,-31.5 1.1,-0.7 2,-1.3 2.9,-2.2 3.4,-3.4 5.2,-7.9 5.2,-12.6 0,-4.7 -1.8,-9.2 -5.2,-12.6 l -12.4,-12.1 3.6,16.6 c 0,0.4 0.2,0.9 0.2,1.6 0,2 -0.7,3.8 -2.2,5.2 -1.3,1.3 -3.1,2.2 -5.2,2.2 -1.1,0 -2,-0.2 -3.1,-0.7 -0.2,-0.2 -0.7,-0.7 -0.9,-0.9 -13.3,-13.3 -31,-20.7 -49.7,-20.7 -38.9,0 -70.4,31.5 -70.4,70.4 0,6.1 0.9,12.1 2.2,18 5.6,44.1 55.8,102.6 96.9,143.7 20.9,20.9 37.1,34.9 37.3,35.1 l 12.4,10.6 12.4,-10.6 c 0.2,-0.2 16.4,-14.2 37.3,-35.1 41.2,-41.2 91.3,-99.4 96.9,-143.7 1.6,-5.8 2.2,-11.9 2.2,-18 1.1,-38.9 -30.6,-70.4 -69.5,-70.4 z"
             id="path3454"
             inkscape:connector-curvature="0"
             style="fill:#ffffff" /><path
             class="st0"
             d="m 530.8,282.8 c -12.1,0 -23.6,4.7 -32.2,13.3 -0.2,0.2 -0.4,0.4 -0.7,0.7 -0.7,0.2 -1.3,0.4 -2,0.4 -1.3,0 -2.5,-0.4 -3.4,-1.3 -0.9,-0.9 -1.3,-2 -1.3,-3.4 0,-0.4 0,-0.7 0,-0.9 l 2.2,-10.8 -7.9,7.9 c -2.2,2.2 -3.4,5.2 -3.4,8.1 0,3.1 1.1,6.1 3.4,8.1 0.7,0.7 1.1,1.1 1.8,1.6 -4,5.6 -4,13.7 0.4,20.5 2.7,4.3 7.4,7.2 12.1,7.6 3.8,0.4 7.4,-0.9 10.1,-3.8 l 3.4,-3.8 -4.7,-1.8 c -0.7,-0.2 -1.1,-0.4 -1.8,-0.7 -3.1,-1.1 -4.5,-1.6 -5.8,-3.4 -3.4,-4 -3.1,-9.9 0.4,-13.5 0.7,-0.7 1.3,-1.1 2,-1.6 0.2,-0.2 0.4,-0.2 0.7,-0.4 l 9.9,-5.2 0,0 c 3.8,-1.3 7.6,-2 11.7,-1.8 9.7,0 18.9,3.8 25.9,10.8 7,7 10.8,16.2 10.8,25.9 0,3.1 -0.4,6.5 -1.3,9.4 l 0,0.4 c -2.5,19.6 -22.7,49.5 -57.4,84.1 -8.8,8.8 -23.4,21.8 -23.4,21.8 0,0 -14.6,-13 -23.4,-21.8 -34.6,-34.6 -55.1,-64.6 -57.4,-84.1 l 0,-0.4 c -0.9,-3.1 -1.3,-6.3 -1.3,-9.4 0,-9.7 3.8,-18.9 10.8,-25.9 7,-7 16.2,-10.8 25.9,-10.8 4,0 7.9,0.7 11.7,1.8 l 0,0 9.9,5.2 c 0.2,0.2 0.4,0.2 0.7,0.4 0.7,0.4 1.3,1.1 2,1.6 3.6,3.8 3.8,9.4 0.4,13.5 -1.3,1.6 -2.7,2.2 -5.8,3.4 -0.4,0.2 -1.1,0.4 -1.8,0.7 l -4.7,1.8 3.4,3.8 c 2.7,2.9 6.3,4.3 10.1,3.8 4.7,-0.4 9.4,-3.6 12.1,-7.6 4.3,-6.7 4.5,-14.6 0.4,-20.5 0.7,-0.4 1.3,-0.9 1.8,-1.6 2.2,-2.2 3.4,-5.2 3.4,-8.1 0,-3.1 -1.1,-6.1 -3.4,-8.1 l -7.9,-7.9 2.2,10.8 c 0,0.2 0,0.7 0,0.9 0,1.3 -0.4,2.5 -1.3,3.4 -0.9,0.9 -2,1.3 -3.4,1.3 -0.7,0 -1.3,-0.2 -2,-0.4 -0.2,-0.2 -0.4,-0.4 -0.7,-0.7 -8.5,-8.5 -20,-13.3 -32.2,-13.3 -25.2,0 -45.7,20.5 -45.7,45.7 0,3.8 0.4,7.9 1.6,11.7 3.6,28.6 36.2,66.4 62.8,93.1 13.5,13.5 24.1,22.7 24.1,22.7 l 7.9,7 7.9,-7 c 0,0 10.6,-9.2 24.1,-22.7 26.8,-26.8 59.2,-64.3 62.8,-93.1 0.9,-3.8 1.6,-7.6 1.6,-11.7 -0.4,-25.3 -20.9,-45.7 -46.1,-45.7 z"
             id="path3456"
             inkscape:connector-curvature="0"
             style="fill:#ffffff" /></g><g
           id="g3458"><path
             class="st0"
             d="m 401.5,758.5 c 18.9,0 36.4,-7.4 49.7,-20.7 0.2,-0.2 0.7,-0.7 0.9,-0.9 0.9,-0.4 2,-0.7 3.1,-0.7 2,0 3.8,0.7 5.2,2.2 1.3,1.3 2.2,3.1 2.2,5.2 0,0.4 0,1.1 -0.2,1.6 l -3.6,16.6 12.4,-12.1 c 3.4,-3.4 5.2,-7.9 5.2,-12.6 0,-4.7 -1.8,-9.2 -5.2,-12.6 -0.9,-0.9 -1.8,-1.6 -2.9,-2.5 6.3,-8.8 6.1,-21.1 -0.7,-31.5 -4.3,-6.5 -11.5,-11 -18.7,-11.9 -6.1,-0.7 -11.5,1.3 -15.5,5.8 l -5.2,5.8 7.4,2.7 c 0.9,0.2 1.8,0.7 2.7,0.9 4.9,1.8 7,2.5 9.2,5.2 4.9,6.3 4.7,15.1 -0.7,20.9 -1.1,0.9 -2,1.8 -3.1,2.5 -0.4,0.2 -0.7,0.4 -1.1,0.7 l -15.1,7.9 0.2,0 c -5.8,2 -11.9,2.9 -18,2.9 -15.1,0 -29.2,-5.8 -39.8,-16.4 -10.6,-10.6 -16.4,-24.7 -16.4,-39.8 0,-4.9 0.7,-9.9 2,-14.6 l 0.2,-0.7 c 3.6,-30.4 35.1,-76.5 88.6,-130 13.5,-13.5 36,-33.7 36,-33.7 0,0 22.5,20.2 36,33.7 53.5,53.5 85,99.6 88.6,130 l 0.2,0.7 c 1.3,4.7 2,9.7 2,14.6 0,15.1 -5.8,29.2 -16.4,39.8 -10.6,10.6 -24.7,16.4 -39.8,16.4 -6.3,0 -12.4,-0.9 -18,-2.9 l 0.2,0 -15.1,-7.9 c -0.2,-0.2 -0.7,-0.4 -1.1,-0.7 -1.1,-0.9 -2,-1.6 -3.1,-2.5 -5.4,-5.8 -5.8,-14.8 -0.7,-20.9 2,-2.5 4.3,-3.4 9.2,-5.2 0.9,-0.2 1.8,-0.7 2.7,-0.9 l 7.4,-2.7 -5.2,-5.8 c -4,-4.5 -9.7,-6.5 -15.5,-5.8 -7.2,0.7 -14.4,5.4 -18.7,11.9 -6.7,10.3 -6.7,22.7 -0.7,31.5 -1.1,0.7 -2,1.6 -2.9,2.5 -3.4,3.4 -5.2,7.9 -5.2,12.6 0,4.7 1.8,9.2 5.2,12.6 l 12.4,12.1 -3.6,-16.6 c 0,-0.4 -0.2,-0.9 -0.2,-1.6 0,-2 0.7,-3.8 2.2,-5.2 1.3,-1.3 3.1,-2.2 5.2,-2.2 1.1,0 2,0.2 3.1,0.7 0.2,0.2 0.7,0.7 0.9,0.9 13.3,13.3 31,20.7 49.7,20.7 38.9,0 70.4,-31.5 70.4,-70.4 0,-6.1 -0.9,-12.1 -2.2,-18 C 621.7,626 571.5,567.5 530.4,526.4 509.5,505.5 493.3,491.5 493.1,491.3 l -12.4,-10.6 -12.4,10.6 c -0.2,0.2 -16.4,14.2 -37.3,35.1 -41.2,41.2 -91.3,99.4 -96.9,143.7 -1.6,5.8 -2.2,11.9 -2.2,18 -0.8,38.6 30.9,70.4 69.6,70.4 z"
             id="path3460"
             inkscape:connector-curvature="0"
             style="fill:#ffffff" /><path
             class="st0"
             d="m 429.2,678.4 c 12.1,0 23.6,-4.7 32.2,-13.3 0.2,-0.2 0.4,-0.4 0.7,-0.7 0.7,-0.2 1.3,-0.4 2,-0.4 1.3,0 2.5,0.4 3.4,1.3 0.9,0.9 1.3,2 1.3,3.4 0,0.2 0,0.7 0,0.9 l -2.2,10.8 7.9,-7.9 c 2.2,-2.2 3.4,-5.2 3.4,-8.1 0,-3.1 -1.1,-6.1 -3.4,-8.1 -0.7,-0.7 -1.1,-1.1 -1.8,-1.6 4,-5.6 4,-13.7 -0.4,-20.5 -2.7,-4.3 -7.4,-7.2 -12.1,-7.6 -3.8,-0.4 -7.4,0.9 -10.1,3.8 l -3.4,3.8 4.7,1.8 c 0.7,0.2 1.1,0.4 1.8,0.7 3.1,1.1 4.5,1.6 5.8,3.4 3.4,4 3.1,9.9 -0.4,13.5 -0.7,0.7 -1.3,1.1 -2,1.6 -0.2,0.2 -0.4,0.2 -0.7,0.4 l -9.9,5.2 0,0 c -3.8,1.3 -7.6,2 -11.7,2 -9.7,0 -18.9,-3.8 -25.9,-10.8 -7,-7 -10.8,-16.2 -10.8,-25.9 0,-3.1 0.4,-6.5 1.3,-9.4 l 0,-0.4 c 2.5,-19.6 22.7,-49.5 57.4,-84.1 8.8,-8.8 23.4,-21.8 23.4,-21.8 0,0 14.6,13 23.4,21.8 34.6,34.6 55.1,64.6 57.4,84.1 l 0,0.4 c 0.9,3.1 1.3,6.3 1.3,9.4 0,9.7 -3.8,18.9 -10.8,25.9 -7,7 -16.2,10.8 -25.9,10.8 -4,0 -7.9,-0.7 -11.7,-2 l 0,0 -9.9,-5.2 c -0.2,-0.2 -0.4,-0.2 -0.7,-0.4 -0.7,-0.4 -1.3,-1.1 -2,-1.6 -3.6,-3.8 -3.8,-9.4 -0.4,-13.5 1.3,-1.6 2.7,-2.2 5.8,-3.4 0.4,-0.2 1.1,-0.4 1.8,-0.7 l 4.7,-1.8 -3.4,-3.8 c -2.7,-2.9 -6.3,-4.3 -10.1,-3.8 -4.7,0.4 -9.4,3.6 -12.1,7.6 -4.3,6.7 -4.5,14.6 -0.4,20.5 -0.7,0.4 -1.3,0.9 -1.8,1.6 -2.2,2.2 -3.4,5.2 -3.4,8.1 0,3.1 1.1,6.1 3.4,8.1 l 7.9,7.9 -2.2,-10.8 c 0,-0.2 0,-0.7 0,-0.9 0,-1.3 0.4,-2.5 1.3,-3.4 0.9,-0.9 2,-1.3 3.4,-1.3 0.7,0 1.3,0.2 2,0.4 0.2,0.2 0.4,0.4 0.7,0.7 8.5,8.5 20,13.3 32.2,13.3 25.2,0 45.7,-20.5 45.7,-45.7 0,-3.8 -0.4,-7.9 -1.6,-11.7 -3.6,-28.6 -36.2,-66.4 -62.8,-93.1 -13.5,-13.5 -24.1,-22.7 -24.1,-22.7 l -7.9,-7 -7.9,7 c 0,0 -10.6,9.2 -24.1,22.7 -26.8,26.8 -59.2,64.3 -62.8,93.1 -0.9,3.8 -1.6,7.6 -1.6,11.7 0.4,25.2 20.9,45.7 46.1,45.7 z"
             id="path3462"
             inkscape:connector-curvature="0"
             style="fill:#ffffff" /></g></g><g
         id="g3464"><g
           id="g3466"><path
             class="st0"
             d="m 757.8,559 c 0,-18.9 -7.4,-36.4 -20.7,-49.7 -0.2,-0.2 -0.7,-0.7 -0.9,-0.9 -0.4,-0.9 -0.7,-2 -0.7,-3.1 0,-2 0.7,-3.8 2.2,-5.2 1.3,-1.3 3.4,-2.2 5.2,-2.2 0.4,0 1.1,0 1.6,0.2 l 16.6,3.6 -12.1,-12.5 c -3.4,-3.4 -7.9,-5.2 -12.6,-5.2 -4.7,0 -9.2,1.8 -12.6,5.2 -0.9,0.9 -1.6,1.8 -2.5,2.9 -8.8,-6.3 -21.1,-6.1 -31.5,0.7 -6.5,4.3 -11,11.5 -11.9,18.7 -0.7,6.1 1.3,11.5 5.8,15.5 l 5.8,5.2 2.7,-7.4 c 0.2,-0.9 0.7,-1.8 0.9,-2.7 1.8,-4.9 2.5,-7 5.2,-9 6.3,-4.9 15.1,-4.7 20.9,0.7 0.9,1.1 1.8,2 2.5,3.1 0.2,0.4 0.4,0.7 0.7,1.1 l 7.9,15.1 0,-0.2 c 2,5.8 2.9,11.9 2.9,18 0,15.1 -5.8,29.2 -16.4,39.8 -10.6,10.6 -24.7,16.4 -39.8,16.4 -4.9,0 -9.9,-0.7 -14.6,-2 l -0.7,-0.2 c -30.4,-3.6 -76.5,-35.1 -130,-88.6 -13.5,-13.5 -33.7,-36 -33.7,-36 0,0 20.2,-22.5 33.7,-36 53.5,-53.5 99.6,-85 130,-88.6 l 0.7,-0.2 c 4.7,-1.3 9.7,-2 14.6,-2 15.1,0 29.2,5.8 39.8,16.4 10.6,10.6 16.4,24.7 16.4,39.8 0,6.3 -0.9,12.4 -2.9,18 l 0,-0.2 -7.9,15.1 c -0.2,0.2 -0.4,0.7 -0.7,1.1 -0.9,1.1 -1.6,2 -2.5,3.1 -5.8,5.4 -14.8,5.8 -20.9,0.7 -2.5,-2 -3.4,-4.3 -5.2,-9.2 -0.2,-0.9 -0.7,-1.8 -0.9,-2.7 l -2.7,-7.4 -5.8,5.2 c -4.5,4 -6.5,9.7 -5.8,15.5 0.7,7.2 5.4,14.4 11.9,18.7 10.3,6.7 22.7,6.7 31.5,0.7 0.7,1.1 1.3,2 2.5,2.9 3.4,3.4 7.9,5.2 12.6,5.2 4.7,0 9.2,-1.8 12.6,-5.2 l 12.1,-12.4 -16.6,3.6 c -0.4,0 -0.9,0.2 -1.6,0.2 -2,0 -3.8,-0.7 -5.2,-2.2 -1.3,-1.3 -2.2,-3.1 -2.2,-5.2 0,-1.1 0.2,-2 0.7,-3.1 0.2,-0.2 0.7,-0.7 0.9,-0.9 13.3,-13.3 20.7,-31 20.7,-49.7 0,-38.9 -31.5,-70.4 -70.4,-70.4 -6.1,0 -12.1,0.9 -18,2.2 -44.1,5.6 -102.6,55.8 -143.7,96.9 -20.9,20.9 -34.9,37.1 -35.1,37.3 l -10.6,12.3 10.6,12.4 c 0.2,0.2 14.2,16.4 35.1,37.3 41.2,41.2 99.4,91.3 143.7,96.9 5.8,1.6 11.9,2.2 18,2.2 38.7,1 70.4,-30.7 70.4,-69.6 z"
             id="path3468"
             inkscape:connector-curvature="0"
             style="fill:#ffffff" /><path
             class="st0"
             d="m 677.7,531.5 c 0,-12.1 -4.7,-23.6 -13.3,-32.2 -0.2,-0.2 -0.4,-0.4 -0.7,-0.7 -0.2,-0.7 -0.4,-1.3 -0.4,-2 0,-1.3 0.4,-2.5 1.3,-3.4 0.9,-0.9 2,-1.3 3.4,-1.3 0.4,0 0.7,0 0.9,0 l 10.8,2.2 -7.9,-7.9 c -2.2,-2.2 -5.2,-3.4 -8.1,-3.4 -3.1,0 -6.1,1.1 -8.1,3.4 -0.7,0.7 -1.1,1.1 -1.6,1.8 -5.6,-4 -13.7,-4 -20.5,0.4 -4.3,2.7 -7.2,7.4 -7.6,12.1 -0.4,3.8 0.9,7.4 3.8,10.1 l 3.8,3.4 1.8,-4.7 c 0.2,-0.7 0.4,-1.1 0.7,-1.8 1.1,-3.1 1.6,-4.5 3.4,-5.8 4,-3.4 9.9,-3.1 13.5,0.4 0.7,0.7 1.1,1.3 1.6,2 0.2,0.2 0.2,0.4 0.4,0.7 l 5.2,9.9 0,0 c 1.3,3.8 2,7.6 2,11.7 0,9.7 -3.8,18.9 -10.8,25.9 -7,7 -16.2,10.8 -25.9,10.8 -3.1,0 -6.5,-0.4 -9.4,-1.3 l -0.4,0 C 596,559.3 566.1,539.1 531.5,504.4 522.7,495.6 509.7,481 509.7,481 c 0,0 13,-14.6 21.8,-23.4 34.6,-34.6 64.6,-55.1 84.1,-57.4 l 0.4,0 c 3.1,-0.9 6.3,-1.3 9.4,-1.3 9.7,0 18.9,3.8 25.9,10.8 7,7 10.8,16 10.8,25.9 0,4 -0.7,7.9 -2,11.7 l 0,0 -5.2,9.9 c -0.2,0.2 -0.2,0.4 -0.4,0.7 -0.4,0.7 -1.1,1.3 -1.6,2 -3.8,3.6 -9.7,3.8 -13.5,0.4 -1.6,-1.3 -2.2,-2.7 -3.4,-5.8 -0.2,-0.4 -0.4,-1.1 -0.7,-1.8 l -1.8,-4.7 -3.8,3.4 c -2.9,2.7 -4.3,6.3 -3.8,10.1 0.4,4.7 3.6,9.4 7.6,12.1 6.7,4.3 14.6,4.5 20.5,0.4 0.4,0.7 0.9,1.3 1.6,1.8 2.2,2.2 5.2,3.4 8.1,3.4 3.1,0 6.1,-1.1 8.1,-3.4 l 7.9,-7.9 -10.8,2.2 c -0.2,0 -0.7,0 -0.9,0 -1.3,0 -2.5,-0.4 -3.4,-1.3 -0.9,-0.9 -1.3,-2 -1.3,-3.4 0,-0.7 0.2,-1.3 0.4,-2 0.2,-0.2 0.4,-0.4 0.7,-0.7 8.5,-8.5 13.3,-20 13.3,-32.2 0,-25.2 -20.5,-45.7 -45.7,-45.7 -3.8,0 -7.9,0.4 -11.7,1.6 -28.6,3.6 -66.4,36.2 -93.1,62.8 -13.5,13.5 -22.7,24.1 -22.7,24.1 l -7,7.9 7,7.9 c 0,0 9.2,10.6 22.7,24.1 26.8,26.8 64.3,59.2 93.1,62.8 3.8,0.9 7.6,1.6 11.7,1.6 25.3,-0.7 45.9,-21.1 45.7,-46.1 z"
             id="path3470"
             inkscape:connector-curvature="0"
             style="fill:#ffffff" /></g><g
           id="g3472"><path
             class="st0"
             d="m 202.2,402.2 c 0,18.9 7.4,36.4 20.7,49.7 0.2,0.2 0.7,0.7 0.9,0.9 0.4,0.9 0.7,2 0.7,3.1 0,2 -0.7,3.8 -2.2,5.2 -1.3,1.3 -3.4,2.2 -5.2,2.2 -0.4,0 -1.1,0 -1.6,-0.2 l -16.6,-3.6 12.1,12.4 c 3.4,3.4 7.9,5.2 12.6,5.2 4.7,0 9.2,-1.8 12.6,-5.2 0.9,-0.9 1.6,-1.8 2.2,-2.9 8.8,6.3 21.1,6.1 31.5,-0.7 6.5,-4.3 11,-11.5 11.9,-18.7 0.7,-6.1 -1.3,-11.5 -5.8,-15.5 l -5.8,-5.2 -2.7,7.4 c -0.2,0.9 -0.7,1.8 -0.9,2.7 -1.8,4.9 -2.5,7 -5.2,9.2 -6.3,4.9 -15.1,4.7 -20.9,-0.7 -0.9,-1.1 -1.8,-2 -2.5,-3.1 -0.2,-0.4 -0.4,-0.7 -0.7,-1.1 l -7.9,-15.1 0,0.2 c -2,-5.8 -2.9,-11.9 -2.9,-18 0,-15.1 5.8,-29.2 16.4,-39.8 10.6,-10.6 24.7,-16.4 39.8,-16.4 4.9,0 9.9,0.7 14.6,2 l 0.7,0.2 c 30.4,3.6 76.5,35.1 130,88.6 13.5,13.5 33.7,36 33.7,36 0,0 -20.2,22.5 -33.7,36 -53.5,53.5 -99.6,85 -130,88.6 l -0.7,0.2 c -4.7,1.3 -9.7,2 -14.6,2 -15.1,0 -29.2,-5.8 -39.8,-16.4 -10.6,-10.6 -16.4,-24.7 -16.4,-39.8 0,-6.3 0.9,-12.4 2.9,-18 l 0,0.2 7.9,-15.1 c 0.2,-0.2 0.4,-0.7 0.7,-1.1 0.9,-1.1 1.6,-2 2.5,-3.1 5.8,-5.4 14.8,-5.8 20.9,-0.7 2.5,2 3.4,4.3 5.2,9 0.2,0.9 0.7,1.8 0.9,2.7 l 2.7,7.4 5.8,-5.2 c 4.5,-4 6.5,-9.7 5.8,-15.5 -0.7,-7.2 -5.4,-14.4 -11.9,-18.7 -10.3,-6.7 -22.7,-6.7 -31.5,-0.7 -0.7,-1.1 -1.3,-2 -2.2,-2.9 -3.4,-3.4 -7.9,-5.2 -12.6,-5.2 -4.7,0 -9.2,1.8 -12.6,5.2 l -12.1,12.4 16.6,-3.6 c 0.4,0 0.9,-0.2 1.6,-0.2 2,0 3.8,0.7 5.2,2.2 1.3,1.3 2.2,3.1 2.2,5.2 0,1.1 -0.2,2 -0.7,3.1 -0.2,0.2 -0.7,0.7 -0.9,0.9 -13.3,13.3 -20.7,31 -20.7,49.7 0,38.9 31.5,70.4 70.4,70.4 6.1,0 12.1,-0.9 18,-2.2 44.1,-5.6 102.6,-55.8 143.7,-96.9 20.9,-20.9 34.9,-37.1 35.1,-37.3 L 480,481.2 469.4,469 c -0.2,-0.2 -14.2,-16.4 -35.1,-37.3 -41.2,-41.2 -99.4,-91.3 -143.7,-96.9 -5.8,-1.6 -11.9,-2.2 -18,-2.2 -38.9,-0.8 -70.4,30.9 -70.4,69.6 z"
             id="path3474"
             inkscape:connector-curvature="0"
             style="fill:#ffffff" /><path
             class="st0"
             d="m 282.1,429.8 c 0,12.1 4.7,23.6 13.3,32.2 0.2,0.2 0.4,0.4 0.7,0.7 0.2,0.7 0.4,1.3 0.4,2 0,1.3 -0.4,2.5 -1.3,3.4 -0.9,0.9 -2,1.3 -3.4,1.3 -0.4,0 -0.7,0 -0.9,0 l -10.8,-2.2 7.9,7.9 c 2.2,2.2 5.2,3.4 8.1,3.4 3.1,0 6.1,-1.1 8.1,-3.4 0.7,-0.7 1.1,-1.1 1.6,-1.8 5.6,4 13.7,4 20.5,-0.4 4.3,-2.7 7.2,-7.4 7.6,-12.1 0.4,-3.8 -0.9,-7.4 -3.8,-10.1 l -3.8,-3.4 -1.8,4.7 c -0.2,0.7 -0.4,1.1 -0.7,1.8 -1.1,3.1 -1.6,4.5 -3.4,5.8 -4,3.4 -9.9,3.1 -13.5,-0.4 -0.7,-0.7 -1.1,-1.3 -1.6,-2 -0.2,-0.2 -0.2,-0.4 -0.4,-0.7 l -5.2,-9.9 0,0 c -1.3,-3.8 -2,-7.6 -2,-11.7 0,-9.7 3.8,-18.9 10.8,-25.9 7,-7 16.2,-10.8 25.9,-10.8 3.1,0 6.5,0.4 9.4,1.3 l 0.4,0 c 19.6,2.5 49.5,22.7 84.1,57.4 8.8,8.8 21.8,23.4 21.8,23.4 0,0 -13,14.6 -21.8,23.4 -34.6,34.6 -64.6,55.1 -84.1,57.4 l -0.4,0 c -3.1,0.9 -6.3,1.3 -9.4,1.3 -9.7,0 -18.9,-3.8 -25.9,-10.8 -7,-7 -10.8,-16.2 -10.8,-25.9 0,-4 0.7,-7.9 2,-11.7 l 0,0 5.2,-9.9 c 0.2,-0.2 0.2,-0.4 0.4,-0.7 0.4,-0.7 1.1,-1.3 1.6,-2 3.8,-3.6 9.7,-3.8 13.5,-0.4 1.6,1.3 2.2,2.7 3.4,5.8 0.2,0.4 0.4,1.1 0.7,1.8 l 1.8,4.7 3.8,-3.4 c 2.9,-2.7 4.3,-6.3 3.8,-10.1 -0.4,-4.7 -3.6,-9.4 -7.6,-12.1 -6.7,-4.3 -14.6,-4.5 -20.5,-0.4 -0.4,-0.7 -0.9,-1.3 -1.6,-1.8 -2.2,-2.2 -5.2,-3.4 -8.1,-3.4 -3.1,0 -6.1,1.1 -8.1,3.4 l -7.9,7.9 10.8,-2.2 c 0.2,0 0.7,0 0.9,0 1.3,0 2.5,0.4 3.4,1.3 0.9,0.9 1.3,2 1.3,3.4 0,0.7 -0.2,1.3 -0.4,2 -0.2,0.2 -0.4,0.4 -0.7,0.7 -8.5,8.5 -13.3,20 -13.3,32.2 0,25.2 20.5,45.7 45.7,45.7 3.8,0 7.9,-0.4 11.7,-1.6 28.6,-3.6 66.4,-36.2 93.1,-62.8 13.5,-13.5 22.7,-24.1 22.7,-24.1 l 7,-7.9 -7,-7.9 c 0,0 -9.2,-10.6 -22.7,-24.1 -26.8,-26.8 -64.3,-59.2 -93.1,-62.8 -3.8,-0.9 -7.6,-1.6 -11.7,-1.6 -25.2,0.5 -45.7,21 -45.7,46.1 z"
             id="path3476"
             inkscape:connector-curvature="0"
             style="fill:#ffffff" /></g></g></g><g
       id="g3478"><g
         id="g3480"><path
           class="st0"
           d="m 270.8,327.1 c 6.7,-6.7 10.3,-15.5 10.3,-25 0,-0.2 0,-0.4 0,-0.7 0.2,-0.4 0.4,-0.9 0.9,-1.3 0.7,-0.7 1.6,-1.1 2.7,-1.1 0.9,0 2,0.4 2.7,1.1 0.2,0.2 0.4,0.4 0.4,0.7 l 4.7,7.2 0,-8.5 c 0,-2.5 -0.9,-4.7 -2.7,-6.3 -1.6,-1.8 -3.8,-2.7 -6.3,-2.7 -0.7,0 -1.3,0 -1.8,0.2 -0.9,-5.4 -5.4,-9.7 -11.5,-11 -3.8,-0.9 -8.1,0.2 -10.8,2.5 -2.2,1.8 -3.6,4.5 -3.4,7.6 l 0.2,3.8 3.6,-1.6 c 0.4,-0.2 0.9,-0.4 1.3,-0.7 2.2,-1.1 3.4,-1.6 4.9,-1.3 4,0.4 7,3.6 7.2,7.6 0,0.7 -0.2,1.3 -0.2,2 0,0.2 0,0.4 -0.2,0.7 l -2.5,8.1 0,0 c -1.3,2.7 -3.1,5.2 -5.4,7.4 -5.4,5.4 -12.4,8.3 -20,8.3 -7.6,0 -14.6,-2.9 -20,-8.3 -1.8,-1.8 -3.4,-3.8 -4.5,-5.8 l -0.2,-0.2 c -9.4,-12.1 -14.6,-39.6 -14.6,-77.4 0,-9.7 0.9,-24.7 0.9,-24.7 0,0 15.1,-0.9 24.7,-0.9 37.8,0 65.5,5.2 77.4,14.6 l 0.2,0.2 c 2.2,1.1 4,2.7 5.8,4.5 5.4,5.4 8.3,12.4 8.3,20 0,7.6 -2.9,14.6 -8.3,20 -2.2,2.2 -4.7,4 -7.4,5.4 l 0,0 -8.1,2.5 c -0.2,0 -0.4,0 -0.7,0.2 -0.7,0 -1.3,0.2 -2,0.2 -4,0 -7.2,-3.1 -7.6,-7.2 -0.2,-1.6 0.2,-2.7 1.3,-4.9 0.2,-0.4 0.4,-0.9 0.7,-1.3 l 1.6,-3.6 -3.8,-0.2 c -2.9,-0.2 -5.6,1.1 -7.6,3.4 -2.2,2.7 -3.1,7 -2.5,10.8 1.3,6.1 5.6,10.3 11,11.5 -0.2,0.7 -0.2,1.1 -0.2,1.8 0,2.5 0.9,4.7 2.7,6.3 1.6,1.6 3.8,2.7 6.3,2.7 l 8.5,0 -7.2,-4.7 c -0.2,-0.2 -0.4,-0.2 -0.7,-0.4 -0.7,-0.7 -1.1,-1.6 -1.1,-2.7 0,-0.9 0.4,-2 1.1,-2.7 0.4,-0.4 0.9,-0.7 1.3,-0.9 0.2,0 0.4,0 0.7,0 9.4,0 18.2,-3.6 25,-10.3 13.7,-13.7 13.7,-36.2 0,-49.9 -2.2,-2.2 -4.5,-4 -7.2,-5.6 -17.5,-13.7 -56,-16.4 -85.2,-16.4 -14.8,0 -25.4,0.7 -25.6,0.7 l -8.1,0.7 -0.7,8.1 c 0,0 -0.7,10.8 -0.7,25.6 0,29.2 2.9,67.5 16.4,85.2 1.6,2.7 3.4,4.9 5.6,7.2 14.2,13.2 36.7,13.2 50.4,-0.5 z"
           id="path3482"
           inkscape:connector-curvature="0"
           style="fill:#ffffff" /><path
           class="st0"
           d="m 252.2,288.8 c 4.3,-4.3 6.7,-10.1 6.7,-16.2 0,-0.2 0,-0.2 0,-0.4 0,-0.2 0.2,-0.7 0.4,-0.9 0.4,-0.4 1.1,-0.7 1.8,-0.7 0.7,0 1.3,0.2 1.8,0.7 0.2,0.2 0.2,0.2 0.2,0.4 l 2.9,4.7 0,-5.6 c 0,-1.6 -0.7,-2.9 -1.8,-4 -1.1,-1.1 -2.5,-1.8 -4,-1.8 -0.4,0 -0.9,0 -1.1,0.2 -0.7,-3.4 -3.4,-6.3 -7.4,-7.2 -2.5,-0.4 -5.2,0 -7,1.6 -1.6,1.1 -2.2,2.9 -2.2,4.9 l 0,2.5 2.2,-1.1 c 0.2,-0.2 0.4,-0.2 0.9,-0.4 1.6,-0.7 2.2,-1.1 3.1,-0.9 2.5,0.2 4.5,2.5 4.7,4.9 0,0.4 0,0.9 -0.2,1.3 0,0.2 0,0.2 0,0.4 l -1.6,5.4 0,0 c -0.9,1.8 -2,3.4 -3.4,4.7 -3.4,3.4 -8.1,5.4 -13,5.4 -4.9,0 -9.4,-1.8 -13,-5.4 -1.1,-1.1 -2,-2.5 -2.9,-3.8 l -0.2,-0.2 c -6.1,-7.9 -9.4,-25.6 -9.4,-50.2 0,-6.3 0.4,-16 0.4,-16 0,0 9.9,-0.4 16,-0.4 24.5,0 42.3,3.4 50.2,9.4 l 0.2,0.2 c 1.3,0.9 2.7,1.8 3.8,2.9 3.4,3.4 5.4,8.1 5.4,13 0,4.9 -1.8,9.4 -5.4,13 -1.3,1.3 -3.1,2.5 -4.7,3.4 l 0,0 -5.4,1.6 c -0.2,0 -0.2,0 -0.4,0 -0.4,0 -0.9,0 -1.3,0.2 -2.5,0 -4.7,-2 -4.9,-4.7 0,-1.1 0.2,-1.8 0.9,-3.1 0.2,-0.2 0.2,-0.4 0.4,-0.9 l 1.1,-2.2 -2.5,0 c -2,0 -3.6,0.7 -4.9,2.2 -1.6,1.8 -2,4.5 -1.6,7 0.9,3.8 3.6,6.7 7.2,7.4 0,0.4 -0.2,0.9 -0.2,1.1 0,1.6 0.7,2.9 1.8,4 1.1,1.1 2.5,1.8 4,1.8 l 5.6,0 -4.7,-2.9 c -0.2,0 -0.2,-0.2 -0.4,-0.2 -0.4,-0.4 -0.7,-1.1 -0.7,-1.8 0,-0.7 0.2,-1.3 0.7,-1.8 0.2,-0.2 0.4,-0.4 0.9,-0.4 0.2,0 0.2,0 0.4,0 6.1,0 11.9,-2.5 16.2,-6.7 9,-9 9,-23.4 0,-32.4 -1.3,-1.3 -2.9,-2.7 -4.7,-3.6 -11.5,-8.8 -36.2,-10.8 -55.1,-10.8 -9.4,0 -16.4,0.4 -16.6,0.4 l -5.2,0.4 -0.4,5.2 c 0,0 -0.4,7 -0.4,16.6 0,18.9 1.8,43.9 10.8,55.1 0.9,1.8 2.2,3.4 3.6,4.7 9,9 23.6,9 32.4,0 z"
           id="path3484"
           inkscape:connector-curvature="0"
           style="fill:#ffffff" /></g><g
         id="g3486"><path
           class="st0"
           d="m 689.2,634.3 c -6.7,6.7 -10.3,15.5 -10.3,25 0,0.2 0,0.4 0,0.7 -0.2,0.4 -0.4,0.9 -0.9,1.3 -0.7,0.7 -1.6,1.1 -2.7,1.1 -0.9,0 -2,-0.4 -2.7,-1.1 -0.2,-0.2 -0.4,-0.4 -0.4,-0.7 l -4.7,-7.2 0,8.5 c 0,2.5 0.9,4.7 2.7,6.3 1.6,1.8 3.8,2.7 6.3,2.7 0.7,0 1.3,0 1.8,-0.2 0.9,5.4 5.4,9.7 11.5,11 3.8,0.9 8.1,-0.2 10.8,-2.5 2.2,-1.8 3.6,-4.5 3.4,-7.6 l -0.2,-3.8 -3.6,1.6 c -0.4,0.2 -0.9,0.4 -1.3,0.7 -2.2,1.1 -3.4,1.6 -4.9,1.3 -4,-0.4 -7,-3.6 -7.2,-7.6 0,-0.7 0.2,-1.3 0.2,-2 0,-0.2 0,-0.4 0.2,-0.7 l 2.5,-8.1 0,0 c 1.3,-2.7 3.1,-5.2 5.4,-7.4 5.4,-5.4 12.4,-8.3 20,-8.3 7.6,0 14.6,2.9 20,8.3 1.8,1.8 3.4,3.8 4.5,5.8 l 0.2,0.2 c 9.4,12.1 14.6,39.6 14.6,77.4 0,9.7 -0.9,24.7 -0.9,24.7 0,0 -15.1,0.9 -24.7,0.9 -37.8,0 -65.5,-5.2 -77.4,-14.6 l -0.2,-0.2 c -2.2,-1.1 -4,-2.7 -5.8,-4.5 -5.4,-5.4 -8.3,-12.4 -8.3,-20 0,-7.6 2.9,-14.6 8.3,-20 2.2,-2.2 4.7,-4 7.4,-5.4 l 0,0 8.1,-2.5 c 0.2,0 0.4,0 0.7,-0.2 0.7,0 1.3,-0.2 2,-0.2 4,0 7.2,3.1 7.6,7.2 0.2,1.6 -0.2,2.7 -1.3,4.9 -0.2,0.4 -0.4,0.9 -0.7,1.3 l -1.6,3.6 3.8,0.2 c 2.9,0.2 5.6,-1.1 7.6,-3.4 2.2,-2.7 3.1,-7 2.5,-10.8 -1.3,-6.1 -5.6,-10.3 -11,-11.5 0.2,-0.7 0.2,-1.3 0.2,-1.8 0,-2.5 -0.9,-4.7 -2.7,-6.3 -1.6,-1.6 -3.8,-2.7 -6.3,-2.7 l -8.7,0 7.2,4.7 c 0.2,0.2 0.4,0.2 0.7,0.4 0.7,0.7 1.1,1.6 1.1,2.7 0,0.9 -0.4,2 -1.1,2.7 -0.4,0.4 -0.9,0.7 -1.3,0.9 -0.2,0 -0.4,0 -0.7,0 -9.4,0 -18.2,3.6 -25,10.3 -13.7,13.7 -13.7,36.2 0,49.9 2.2,2.2 4.5,4 7.2,5.6 17.5,13.7 56,16.4 85.2,16.4 14.8,0 25.4,-0.7 25.6,-0.7 l 8.1,-0.7 0.7,-8.1 c 0,0 0.7,-10.8 0.7,-25.6 0,-29.2 -2.9,-67.5 -16.4,-85.2 -1.6,-2.7 -3.4,-4.9 -5.6,-7.2 -14,-13.2 -36.5,-13.2 -50.2,0.5 z"
           id="path3488"
           inkscape:connector-curvature="0"
           style="fill:#ffffff" /><path
           class="st0"
           d="m 707.6,672.3 c -4.3,4.3 -6.7,10.1 -6.7,16.2 0,0.2 0,0.2 0,0.4 -0.2,0.2 -0.2,0.7 -0.4,0.9 -0.4,0.4 -1.1,0.7 -1.8,0.7 -0.7,0 -1.3,-0.2 -1.8,-0.7 -0.2,-0.2 -0.2,-0.2 -0.2,-0.4 l -2.9,-4.7 0,5.6 c 0,1.6 0.7,2.9 1.8,4 1.1,1.1 2.5,1.8 4,1.8 0.4,0 0.9,0 1.1,-0.2 0.7,3.4 3.4,6.3 7.4,7.2 2.5,0.4 5.2,0 7,-1.6 1.6,-1.1 2.2,-2.9 2.2,-4.9 l 0,-2.5 -2.2,1.1 c -0.2,0.2 -0.4,0.2 -0.9,0.4 -1.6,0.7 -2.2,1.1 -3.1,0.9 -2.5,-0.2 -4.5,-2.5 -4.7,-4.9 0,-0.4 0,-0.9 0.2,-1.3 0,-0.2 0,-0.2 0,-0.4 l 1.6,-5.4 0,0 c 0.9,-1.8 2,-3.4 3.4,-4.7 3.4,-3.4 8.1,-5.4 13,-5.4 4.9,0 9.4,1.8 13,5.4 1.1,1.1 2,2.5 2.9,3.8 l 0.2,0.2 c 6.1,7.9 9.4,25.6 9.4,50.2 0,6.3 -0.4,16 -0.4,16 0,0 -9.9,0.4 -16,0.4 -24.5,0 -42.3,-3.4 -50.2,-9.4 l -0.2,-0.2 c -1.3,-0.9 -2.7,-1.8 -3.8,-2.9 -3.4,-3.4 -5.4,-8.1 -5.4,-13 0,-4.9 1.8,-9.4 5.4,-13 1.3,-1.3 3.1,-2.5 4.7,-3.4 l 0,0 5.4,-1.6 c 0.2,0 0.2,0 0.4,0 0.4,0 0.9,0 1.3,-0.2 2.5,0 4.7,2 4.9,4.7 0,1.1 -0.2,1.8 -0.9,3.1 -0.2,0.2 -0.2,0.4 -0.4,0.9 l -1.1,2.2 2.5,0.2 c 2,0 3.6,-0.7 4.9,-2.2 1.6,-1.8 2,-4.5 1.6,-7 -0.9,-3.8 -3.6,-6.7 -7.2,-7.4 0,-0.4 0.2,-0.9 0.2,-1.1 0,-1.6 -0.7,-2.9 -1.8,-4 -1.1,-1.1 -2.5,-1.8 -4,-1.8 l -5.6,0 4.7,2.9 c 0.2,0 0.2,0.2 0.4,0.2 0.4,0.4 0.7,1.1 0.7,1.8 0,0.7 -0.2,1.3 -0.7,1.8 -0.2,0.2 -0.4,0.4 -0.9,0.4 -0.2,0 -0.2,0 -0.4,0 -6.1,0 -11.9,2.5 -16.2,6.7 -9,9 -9,23.4 0,32.4 1.3,1.3 2.9,2.7 4.7,3.6 11.5,8.8 36.2,10.8 55.1,10.8 9.4,0 16.4,-0.4 16.6,-0.4 l 5.2,-0.4 0.4,-5.2 c 0,0 0.4,-7 0.4,-16.6 0,-18.9 -1.8,-43.9 -10.8,-55.1 -0.9,-1.8 -2.2,-3.4 -3.6,-4.7 -9,-9 -23.4,-9 -32.4,-0.2 z"
           id="path3490"
           inkscape:connector-curvature="0"
           style="fill:#ffffff" /></g></g><g
       id="g3492"><g
         id="g3494"><path
           class="st0"
           d="m 633.6,271.5 c 6.7,6.7 15.5,10.3 25,10.3 0.2,0 0.4,0 0.7,0 0.4,0.2 0.9,0.4 1.3,0.9 0.7,0.7 1.1,1.6 1.1,2.7 0,0.9 -0.4,2 -1.1,2.7 -0.2,0.2 -0.4,0.4 -0.7,0.4 l -7.2,4.7 8.5,0 c 2.5,0 4.7,-0.9 6.3,-2.7 1.8,-1.6 2.7,-3.8 2.7,-6.3 0,-0.7 0,-1.3 -0.2,-1.8 5.4,-0.9 9.7,-5.4 11,-11.5 0.9,-3.8 -0.2,-8.1 -2.5,-10.8 -1.8,-2.2 -4.5,-3.6 -7.6,-3.4 l -3.8,0.2 1.6,3.6 c 0.2,0.4 0.4,0.9 0.7,1.3 1.1,2.2 1.6,3.4 1.3,4.9 -0.4,4 -3.6,7 -7.6,7.2 -0.7,0 -1.3,-0.2 -2,-0.2 -0.2,0 -0.4,0 -0.7,-0.2 l -8.1,-2.5 0,0 c -2.7,-1.3 -5.2,-3.1 -7.4,-5.4 -5.4,-5.4 -8.3,-12.4 -8.3,-20 0,-7.6 2.9,-14.6 8.3,-20 1.8,-1.8 3.8,-3.4 5.8,-4.5 l 0.2,-0.2 c 12.1,-9.4 39.6,-14.6 77.4,-14.6 9.7,0 24.7,0.9 24.7,0.9 0,0 0.9,15.1 0.9,24.7 0,37.8 -5.2,65.5 -14.6,77.4 l -0.2,0.2 c -1.1,2.2 -2.7,4 -4.5,5.8 -5.4,5.4 -12.4,8.3 -20,8.3 -7.6,0 -14.6,-2.9 -20,-8.3 -2.2,-2.2 -4,-4.7 -5.4,-7.4 l 0,0 -2.5,-8.1 c 0,-0.2 0,-0.4 -0.2,-0.7 0,-0.7 -0.2,-1.3 -0.2,-2 0,-4 3.1,-7.2 7.2,-7.6 1.6,-0.2 2.7,0.2 4.9,1.3 0.4,0.2 0.9,0.4 1.3,0.7 l 3.6,1.6 0.2,-3.8 c 0.2,-2.9 -1.1,-5.6 -3.4,-7.6 -2.7,-2.2 -7,-3.1 -10.8,-2.5 -6.1,1.3 -10.3,5.6 -11.5,11 -0.7,-0.2 -1.3,-0.2 -1.8,-0.2 -2.5,0 -4.7,0.9 -6.3,2.7 -1.6,1.6 -2.7,3.8 -2.7,6.3 l 0,8.5 4.7,-7.2 c 0.2,-0.2 0.2,-0.4 0.4,-0.7 0.7,-0.7 1.6,-1.1 2.7,-1.1 0.9,0 2,0.4 2.7,1.1 0.4,0.4 0.7,0.9 0.9,1.3 0,0.2 0,0.4 0,0.7 0,9.4 3.6,18.2 10.3,25 13.7,13.7 36.2,13.7 49.9,0 2.2,-2.2 4,-4.5 5.6,-7.2 13.7,-17.5 16.4,-56 16.4,-85.2 0,-14.8 -0.7,-25.4 -0.7,-25.6 l -0.7,-8.1 -8.1,-0.7 c 0,0 -10.8,-0.7 -25.6,-0.7 -29.2,0 -67.5,2.9 -85.2,16.4 -2.7,1.6 -4.9,3.4 -7.2,5.6 -13.2,14.2 -13.2,36.7 0.5,50.4 z"
           id="path3496"
           inkscape:connector-curvature="0"
           style="fill:#ffffff" /><path
           class="st0"
           d="m 671.9,252.8 c 4.3,4.3 10.1,6.7 16.2,6.7 0.2,0 0.2,0 0.4,0 0.2,0.2 0.7,0.2 0.9,0.4 0.4,0.4 0.7,1.1 0.7,1.8 0,0.7 -0.2,1.3 -0.7,1.8 -0.2,0.2 -0.2,0.2 -0.4,0.2 l -4.7,2.9 5.6,0 c 1.6,0 2.9,-0.7 4,-1.8 1.1,-1.1 1.8,-2.5 1.8,-4 0,-0.4 0,-0.9 -0.2,-1.1 3.4,-0.7 6.3,-3.4 7.2,-7.4 0.4,-2.5 0,-5.2 -1.6,-7 -1.1,-1.6 -2.9,-2.2 -4.9,-2.2 l -2.5,0 1.1,2.2 c 0.2,0.2 0.2,0.4 0.4,0.9 0.7,1.6 1.1,2.2 0.9,3.1 -0.2,2.5 -2.5,4.5 -4.9,4.7 -0.4,0 -0.9,0 -1.3,-0.2 -0.2,0 -0.2,0 -0.4,0 l -5.4,-1.6 0,0 c -1.8,-0.9 -3.4,-2 -4.7,-3.4 -3.4,-3.4 -5.4,-8.1 -5.4,-13 0,-4.9 1.8,-9.4 5.4,-13 1.1,-1.1 2.5,-2 3.8,-2.9 l 0.2,-0.2 c 7.9,-6.1 25.6,-9.4 50.2,-9.4 6.3,0 16,0.4 16,0.4 0,0 0.4,9.9 0.4,16 0,24.5 -3.4,42.3 -9.4,50.2 l -0.2,0.2 c -0.9,1.3 -1.8,2.7 -2.9,3.8 -3.4,3.4 -8.1,5.4 -13,5.4 -4.9,0 -9.4,-1.8 -13,-5.4 -1.3,-1.3 -2.5,-3.1 -3.4,-4.7 l 0,0 -1.6,-5.4 c 0,-0.2 0,-0.2 0,-0.4 0,-0.4 0,-0.9 -0.2,-1.3 0,-2.5 2,-4.7 4.7,-4.9 1.1,0 1.8,0.2 3.1,0.9 0.2,0.2 0.4,0.2 0.9,0.4 l 2.2,1.1 0.2,-2.5 c 0,-2 -0.7,-3.6 -2.2,-4.9 -1.8,-1.6 -4.5,-2 -7,-1.6 -3.8,0.9 -6.7,3.6 -7.4,7.2 -0.4,0 -0.9,-0.2 -1.1,-0.2 -1.6,0 -2.9,0.7 -4,1.8 -1.1,1.1 -1.8,2.5 -1.8,4 l 0,5.6 3.1,-4.7 c 0,-0.2 0.2,-0.2 0.2,-0.4 0.4,-0.4 1.1,-0.7 1.8,-0.7 0.7,0 1.3,0.2 1.8,0.7 0.2,0.2 0.4,0.4 0.4,0.9 0,0.2 0,0.2 0,0.4 0,6.1 2.5,11.9 6.7,16.2 9,9 23.4,9 32.4,0 1.3,-1.3 2.7,-2.9 3.6,-4.7 8.8,-11.5 10.8,-36.2 10.8,-55.1 0,-9.4 -0.4,-16.4 -0.4,-16.6 l -0.4,-5.2 -5.2,-0.4 c 0,0 -7,-0.4 -16.6,-0.4 -18.9,0 -43.9,1.8 -55.1,10.8 -1.8,0.9 -3.4,2.2 -4.7,3.6 -9.4,9 -9.4,23.7 -0.4,32.4 z"
           id="path3498"
           inkscape:connector-curvature="0"
           style="fill:#ffffff" /></g><g
         id="g3500"><path
           class="st0"
           d="m 326.4,689.9 c -6.7,-6.7 -15.5,-10.3 -25,-10.3 -0.2,0 -0.4,0 -0.7,0 -0.4,-0.2 -0.9,-0.4 -1.3,-0.9 -0.7,-0.7 -1.1,-1.6 -1.1,-2.7 0,-0.9 0.4,-2 1.1,-2.7 0.2,-0.2 0.4,-0.4 0.7,-0.4 l 7.2,-4.7 -8.5,0 c -2.5,0 -4.7,0.9 -6.3,2.7 -1.8,1.6 -2.7,3.8 -2.7,6.3 0,0.7 0,1.3 0.2,1.8 -5.4,0.9 -9.7,5.4 -11,11.5 -0.9,3.8 0.2,8.1 2.5,10.8 1.8,2.2 4.5,3.6 7.6,3.4 l 3.8,-0.2 -1.6,-3.6 c -0.2,-0.4 -0.4,-0.9 -0.7,-1.3 -1.1,-2.2 -1.6,-3.4 -1.3,-4.9 0.4,-4 3.6,-7 7.6,-7.2 0.7,0 1.3,0.2 2,0.2 0.2,0 0.4,0 0.7,0.2 l 8.1,2.5 0,0 c 2.7,1.3 5.2,3.1 7.4,5.4 5.4,5.4 8.3,12.4 8.3,20 0,7.6 -2.9,14.6 -8.3,20 -1.8,1.8 -3.8,3.4 -5.8,4.5 l -0.2,0.2 c -12.1,9.4 -39.6,14.6 -77.4,14.6 -9.7,0 -24.7,-0.9 -24.7,-0.9 0,0 -0.9,-15.1 -0.9,-24.7 0,-37.8 5.2,-65.5 14.6,-77.4 l 0.2,-0.2 c 1.1,-2.2 2.7,-4 4.5,-5.8 5.4,-5.4 12.4,-8.3 20,-8.3 7.6,0 14.6,2.9 20,8.3 2.2,2.2 4,4.7 5.4,7.4 l 0,0 2.5,8.1 c 0,0.2 0,0.4 0.2,0.7 0,0.7 0.2,1.3 0.2,2 0,4 -3.1,7.2 -7.2,7.6 -1.6,0.2 -2.7,-0.2 -4.9,-1.3 -0.4,-0.2 -0.9,-0.4 -1.3,-0.7 l -3.6,-1.6 -0.2,3.8 c -0.2,2.9 1.1,5.6 3.4,7.6 2.7,2.2 7,3.1 10.8,2.5 6.1,-1.3 10.3,-5.6 11.5,-11 0.7,0.2 1.3,0.2 1.8,0.2 2.5,0 4.7,-0.9 6.3,-2.7 1.6,-1.6 2.7,-3.8 2.7,-6.3 l 0,-8.5 -4.7,7.2 c -0.2,0.2 -0.2,0.4 -0.4,0.7 -0.7,0.7 -1.6,1.1 -2.7,1.1 -0.9,0 -2,-0.4 -2.7,-1.1 -0.4,-0.4 -0.7,-0.9 -0.9,-1.3 0,-0.2 0,-0.4 0,-0.7 0,-9.4 -3.6,-18.2 -10.3,-25 -13.7,-13.7 -36.2,-13.7 -49.9,0 -2.2,2.2 -4,4.5 -5.6,7.2 -13.7,17.5 -16.4,56 -16.4,85.2 0,14.8 0.7,25.4 0.7,25.6 l 0.7,8.1 8.1,0.7 c 0,0 10.8,0.7 25.6,0.7 29.2,0 67.5,-2.9 85.2,-16.4 2.7,-1.6 4.9,-3.4 7.2,-5.6 13.2,-14.2 13.2,-36.7 -0.5,-50.4 z"
           id="path3502"
           inkscape:connector-curvature="0"
           style="fill:#ffffff" /><path
           class="st0"
           d="m 288.2,708.3 c -4.3,-4.3 -10.1,-6.7 -16.2,-6.7 -0.2,0 -0.2,0 -0.4,0 -0.2,-0.2 -0.7,-0.2 -0.9,-0.4 -0.4,-0.4 -0.7,-1.1 -0.7,-1.8 0,-0.7 0.2,-1.3 0.7,-1.8 0.2,-0.2 0.2,-0.2 0.4,-0.2 l 4.7,-2.9 -5.6,0 c -1.6,0 -2.9,0.7 -4,1.8 -1.1,1.1 -1.8,2.5 -1.8,4 0,0.4 0,0.9 0.2,1.1 -3.4,0.7 -6.3,3.4 -7.2,7.4 -0.4,2.5 0,5.2 1.6,7 1.1,1.6 2.9,2.2 4.9,2.2 l 2.5,0 -1.1,-2.2 c -0.2,-0.2 -0.2,-0.4 -0.4,-0.9 -0.7,-1.6 -1.1,-2.2 -0.9,-3.1 0.2,-2.5 2.5,-4.5 4.9,-4.7 0.4,0 0.9,0 1.3,0.2 0.2,0 0.2,0 0.4,0 l 5.4,1.6 0,0 c 1.8,0.9 3.4,2 4.7,3.4 3.4,3.4 5.4,8.1 5.4,13 0,4.9 -1.8,9.4 -5.4,13 -1.1,1.1 -2.5,2 -3.8,2.9 l -0.2,0.2 c -7.9,6.1 -25.6,9.4 -50.2,9.4 -6.3,0 -16,-0.4 -16,-0.4 0,0 -0.4,-9.9 -0.4,-16 0,-24.5 3.4,-42.3 9.4,-50.2 l 0.2,-0.2 c 0.9,-1.3 1.8,-2.7 2.9,-3.8 3.4,-3.4 8.1,-5.4 13,-5.4 4.9,0 9.4,1.8 13,5.4 1.3,1.3 2.5,3.1 3.4,4.7 l 0,0 1.6,5.4 c 0,0.2 0,0.2 0,0.4 0,0.4 0,0.9 0.2,1.3 0,2.5 -2,4.7 -4.7,4.9 -1.1,0 -1.8,-0.2 -3.1,-0.9 -0.2,-0.2 -0.4,-0.2 -0.9,-0.4 l -2.2,-1.1 -0.2,2.5 c 0,2 0.7,3.6 2.2,4.9 1.8,1.6 4.5,2 7,1.6 3.8,-0.9 6.7,-3.6 7.4,-7.2 0.4,0 0.9,0.2 1.1,0.2 1.6,0 2.9,-0.7 4,-1.8 1.1,-1.1 1.8,-2.5 1.8,-4 l 0,-5.6 -2.9,4.7 c 0,0.2 -0.2,0.2 -0.2,0.4 -0.4,0.4 -1.1,0.7 -1.8,0.7 -0.7,0 -1.3,-0.2 -1.8,-0.7 -0.2,-0.2 -0.4,-0.4 -0.4,-0.9 0,-0.2 0,-0.2 0,-0.4 0,-6.1 -2.5,-11.9 -6.7,-16.2 -9,-9 -23.4,-9 -32.4,0 -1.3,1.3 -2.7,2.9 -3.6,4.7 -8.8,11.5 -10.8,36.2 -10.8,55.1 0,9.4 0.4,16.4 0.4,16.6 l 0.4,5.2 5.2,0.4 c 0,0 7,0.4 16.6,0.4 18.9,0 43.9,-1.8 55.1,-10.8 1.8,-0.9 3.4,-2.2 4.7,-3.6 9.2,-9 9.2,-23.4 0.2,-32.4 z"
           id="path3504"
           inkscape:connector-curvature="0"
           style="fill:#ffffff" /></g></g></g></svg>